<svg width="621" height="540" viewBox="0 0 621 540" fill="none" xmlns="http://www.w3.org/2000/svg">
<circle cx="310" cy="290" r="249.5" stroke="black" stroke-dasharray="10 10"/>
<path d="M310.5 125L500.593 419H120.407L310.5 125Z" fill="#8ACBFF"/>
<line x1="223.332" y1="184.75" x2="166.763" y2="282.73" stroke="#018FFF" stroke-width="11"/>
<path d="M231.545 162.132L236.3 199.723L201.827 185.638L231.545 162.132Z" fill="#018FFF"/>
<line x1="462.805" y1="282.73" x2="406.237" y2="184.75" stroke="#018FFF" stroke-width="11"/>
<path d="M473.054 301.963L442.252 279.897L476.016 264.189L473.054 301.963Z" fill="#018FFF"/>
<line x1="366.137" y1="464.5" x2="253" y2="464.5" stroke="#018FFF" stroke-width="11"/>
<path d="M219.449 458.495L252.83 440.568L252.053 477.799L219.449 458.495Z" fill="#018FFF"/>
<circle cx="310" cy="91" r="91" fill="#0047FE"/>
<circle cx="309.5" cy="91.5" r="79" fill="#46ADFF" stroke="#0047FE" stroke-width="9"/>
<path d="M306.09 116.937C305.415 117.612 304.215 117.724 303.428 116.937C303.076 116.583 302.879 116.104 302.879 115.606C302.879 115.107 303.076 114.628 303.428 114.274L316.14 101.562L310.853 96.2744L298.14 108.987C297.428 109.737 296.228 109.699 295.478 108.987C295.126 108.633 294.929 108.154 294.929 107.656C294.929 107.157 295.126 106.678 295.478 106.324L308.19 93.6119L302.903 88.3244L290.19 101.037C289.515 101.712 288.315 101.824 287.528 101.037C287.184 100.679 286.993 100.202 286.993 99.7056C286.993 99.2095 287.184 98.7325 287.528 98.3744L300.24 85.6619L294.915 80.3744L282.203 93.0869C281.528 93.7619 280.328 93.8744 279.54 93.0869C279.197 92.7287 279.005 92.2518 279.005 91.7556C279.005 91.2595 279.197 90.7825 279.54 90.4244L295.965 73.9994L302.978 80.9744C306.54 84.5369 312.69 84.4994 316.253 80.9744C319.928 77.2994 319.928 71.3744 316.253 67.6994L309.278 60.7244L310.328 59.6744C313.253 56.7494 318.015 56.7494 320.94 59.6744L336.84 75.5744C339.765 78.4994 339.765 83.2619 336.84 86.1869L306.09 116.937ZM342.128 91.5119C344.937 88.6945 346.515 84.8781 346.515 80.8994C346.515 76.9207 344.937 73.1043 342.128 70.2869L326.228 54.3869C323.41 51.5776 319.594 50 315.615 50C311.637 50 307.82 51.5776 305.003 54.3869L303.953 55.4369L302.903 54.3869C300.085 51.5776 296.269 50 292.29 50C288.312 50 284.495 51.5776 281.678 54.3869L268.403 67.6619C265.866 70.1901 264.32 73.5441 264.044 77.115C263.769 80.686 264.783 84.2373 266.903 87.1244L272.34 81.6869C271.615 80.2715 271.359 78.6623 271.608 77.0918C271.858 75.5212 272.6 74.0706 273.728 72.9494L287.003 59.6744C289.928 56.7494 294.69 56.7494 297.615 59.6744L310.965 73.0244C311.64 73.6994 311.753 74.8994 310.965 75.6869C310.178 76.4744 308.978 76.3619 308.303 75.6869L295.965 63.3869L274.215 85.0994C270.54 88.7369 270.54 94.6994 274.215 98.3744C275.678 99.8369 277.553 100.737 279.54 100.999C279.803 103.016 280.725 104.889 282.163 106.327C283.601 107.765 285.474 108.687 287.49 108.949C287.753 110.966 288.675 112.839 290.113 114.277C291.551 115.715 293.424 116.637 295.44 116.899C295.703 118.924 296.603 120.762 298.065 122.224C299.828 123.987 302.19 124.962 304.703 124.962C307.215 124.962 309.578 123.987 311.34 122.224L342.128 91.5119Z" fill="white"/>
<circle cx="91" cy="384" r="91" fill="#0094FF"/>
<circle cx="91.5" cy="384.5" r="79" fill="#46ADFF" stroke="#0094FF" stroke-width="9"/>
<path d="M60 393H90V385.5H60V393ZM60 381.75H105V374.25H60V381.75ZM60 370.5H105V363H60V370.5ZM45 423V348H120V408H60L45 423ZM52.5 404.906L56.9063 400.5H112.5V355.5H52.5V404.906ZM52.5 404.906V355.5V400.5V404.906Z" fill="white"/>
<circle cx="530" cy="384" r="91" fill="#0094FF"/>
<circle cx="528.5" cy="384.5" r="79" fill="#46ADFF" stroke="#0094FF" stroke-width="9"/>
<path d="M566 358.5V411H513.5V358.5H566ZM570.125 351H509.375C507.5 351 506 352.5 506 354.375V415.125C506 416.625 507.5 418.5 509.375 418.5H570.125C571.625 418.5 573.5 416.625 573.5 415.125V354.375C573.5 352.5 571.625 351 570.125 351ZM536 366H558.5V373.5H536V366ZM536 381H558.5V388.5H536V381ZM536 396H558.5V403.5H536V396ZM521 366H528.5V373.5H521V366ZM521 381H528.5V388.5H521V381ZM521 396H528.5V403.5H521V396Z" fill="white"/>
</svg>
