<svg width="1020" height="387" viewBox="0 0 1020 387" fill="none" xmlns="http://www.w3.org/2000/svg">
<g opacity="0.7" filter="url(#filter0_d_306_41)">
<rect x="0.289551" y="129.145" width="182.229" height="182.229" rx="30" transform="rotate(-45 0.289551 129.145)" fill="#51E2FF"/>
</g>
<rect opacity="0.7" x="183.813" y="129.145" width="182.229" height="182.229" rx="30" transform="rotate(-45 183.813 129.145)" fill="#48C6DF"/>
<g opacity="0.7" filter="url(#filter1_d_306_41)">
<rect x="375.154" y="129.145" width="182.229" height="182.229" rx="30" transform="rotate(-45 375.154 129.145)" fill="#41ABC0"/>
</g>
<g opacity="0.7" filter="url(#filter2_d_306_41)">
<rect x="568.316" y="129.145" width="182.229" height="182.229" rx="30" transform="rotate(-45 568.316 129.145)" fill="#3B98AA"/>
</g>
<g opacity="0.7" filter="url(#filter3_d_306_41)">
<rect x="761.479" y="129.145" width="182.229" height="182.229" rx="30" transform="rotate(-45 761.479 129.145)" fill="#2E7786"/>
</g>
<line x1="133" y1="245" x2="133" y2="295" stroke="#85EBFF" stroke-width="4"/>
<line x1="315" y1="237" x2="315" y2="297" stroke="#7FD7E9" stroke-width="4"/>
<line x1="506" y1="237" x2="506" y2="308" stroke="#7AC4D3" stroke-width="4"/>
<line x1="699" y1="237" x2="699" y2="297" stroke="#76B7C3" stroke-width="4"/>
<line x1="892" y1="237" x2="892" y2="287" stroke="#6DA0AA" stroke-width="4"/>
<g filter="url(#filter4_d_306_41)">
<circle cx="130.558" cy="320.558" r="25.2795" transform="rotate(-95.9233 130.558 320.558)" stroke="url(#paint0_linear_306_41)" stroke-width="4" shape-rendering="crispEdges"/>
</g>
<g filter="url(#filter5_d_306_41)">
<circle cx="312.558" cy="320.562" r="25.2795" transform="rotate(-95.9233 312.558 320.562)" stroke="url(#paint1_linear_306_41)" stroke-width="4" shape-rendering="crispEdges"/>
</g>
<g filter="url(#filter6_d_306_41)">
<circle cx="503.558" cy="333.558" r="25.2795" transform="rotate(-95.9233 503.558 333.558)" stroke="url(#paint2_linear_306_41)" stroke-width="4" shape-rendering="crispEdges"/>
</g>
<g filter="url(#filter7_d_306_41)">
<circle cx="696.557" cy="322.558" r="25.2795" transform="rotate(-95.9233 696.557 322.558)" stroke="url(#paint3_linear_306_41)" stroke-width="4" shape-rendering="crispEdges"/>
</g>
<g filter="url(#filter8_d_306_41)">
<circle cx="889.557" cy="313.558" r="25.2795" transform="rotate(-95.9233 889.557 313.558)" stroke="url(#paint4_linear_306_41)" stroke-width="4" shape-rendering="crispEdges"/>
</g>
<path d="M126.364 328.239C125.136 328.239 124.088 327.886 123.219 327.182C122.355 326.472 121.69 325.446 121.224 324.105C120.764 322.764 120.534 321.153 120.534 319.273C120.534 317.398 120.764 315.793 121.224 314.457C121.69 313.116 122.358 312.091 123.227 311.381C124.102 310.665 125.148 310.307 126.364 310.307C127.58 310.307 128.622 310.665 129.491 311.381C130.366 312.091 131.034 313.116 131.494 314.457C131.96 315.793 132.193 317.398 132.193 319.273C132.193 321.153 131.96 322.764 131.494 324.105C131.034 325.446 130.369 326.472 129.5 327.182C128.636 327.886 127.591 328.239 126.364 328.239ZM126.364 326.807C127.71 326.807 128.761 326.151 129.517 324.838C130.273 323.52 130.651 321.665 130.651 319.273C130.651 317.682 130.477 316.324 130.131 315.199C129.79 314.068 129.298 313.205 128.656 312.608C128.02 312.011 127.256 311.713 126.364 311.713C125.028 311.713 123.98 312.378 123.219 313.707C122.457 315.031 122.077 316.886 122.077 319.273C122.077 320.864 122.247 322.222 122.588 323.347C122.935 324.472 123.426 325.33 124.062 325.92C124.705 326.511 125.472 326.807 126.364 326.807ZM141.048 310.545V328H139.455V312.216H139.352L135.261 314.935V313.281L139.386 310.545H141.048Z" fill="black"/>
<path d="M305.364 328.239C304.136 328.239 303.088 327.886 302.219 327.182C301.355 326.472 300.69 325.446 300.224 324.105C299.764 322.764 299.534 321.153 299.534 319.273C299.534 317.398 299.764 315.793 300.224 314.457C300.69 313.116 301.358 312.091 302.227 311.381C303.102 310.665 304.148 310.307 305.364 310.307C306.58 310.307 307.622 310.665 308.491 311.381C309.366 312.091 310.034 313.116 310.494 314.457C310.96 315.793 311.193 317.398 311.193 319.273C311.193 321.153 310.96 322.764 310.494 324.105C310.034 325.446 309.369 326.472 308.5 327.182C307.636 327.886 306.591 328.239 305.364 328.239ZM305.364 326.807C306.71 326.807 307.761 326.151 308.517 324.838C309.273 323.52 309.651 321.665 309.651 319.273C309.651 317.682 309.477 316.324 309.131 315.199C308.79 314.068 308.298 313.205 307.656 312.608C307.02 312.011 306.256 311.713 305.364 311.713C304.028 311.713 302.98 312.378 302.219 313.707C301.457 315.031 301.077 316.886 301.077 319.273C301.077 320.864 301.247 322.222 301.588 323.347C301.935 324.472 302.426 325.33 303.062 325.92C303.705 326.511 304.472 326.807 305.364 326.807ZM314.662 328V326.832L320.364 320.423C321.108 319.582 321.707 318.864 322.162 318.267C322.616 317.67 322.946 317.119 323.151 316.614C323.361 316.108 323.466 315.582 323.466 315.037C323.466 314.372 323.31 313.793 322.997 313.298C322.69 312.798 322.267 312.409 321.727 312.131C321.188 311.852 320.58 311.713 319.903 311.713C319.188 311.713 318.56 311.866 318.02 312.173C317.486 312.48 317.071 312.901 316.776 313.435C316.48 313.969 316.332 314.582 316.332 315.276H314.807C314.807 314.31 315.028 313.455 315.472 312.71C315.92 311.96 316.531 311.372 317.304 310.946C318.082 310.52 318.963 310.307 319.946 310.307C320.918 310.307 321.781 310.517 322.537 310.938C323.293 311.352 323.886 311.918 324.318 312.634C324.75 313.349 324.966 314.151 324.966 315.037C324.966 315.679 324.852 316.301 324.625 316.903C324.403 317.506 324.02 318.176 323.474 318.915C322.929 319.653 322.173 320.557 321.207 321.625L316.878 326.457V326.568H325.511V328H314.662Z" fill="black"/>
<path d="M496.364 343.239C495.136 343.239 494.088 342.886 493.219 342.182C492.355 341.472 491.69 340.446 491.224 339.105C490.764 337.764 490.534 336.153 490.534 334.273C490.534 332.398 490.764 330.793 491.224 329.457C491.69 328.116 492.358 327.091 493.227 326.381C494.102 325.665 495.148 325.307 496.364 325.307C497.58 325.307 498.622 325.665 499.491 326.381C500.366 327.091 501.034 328.116 501.494 329.457C501.96 330.793 502.193 332.398 502.193 334.273C502.193 336.153 501.96 337.764 501.494 339.105C501.034 340.446 500.369 341.472 499.5 342.182C498.636 342.886 497.591 343.239 496.364 343.239ZM496.364 341.807C497.71 341.807 498.761 341.151 499.517 339.838C500.273 338.52 500.651 336.665 500.651 334.273C500.651 332.682 500.477 331.324 500.131 330.199C499.79 329.068 499.298 328.205 498.656 327.608C498.02 327.011 497.256 326.713 496.364 326.713C495.028 326.713 493.98 327.378 493.219 328.707C492.457 330.031 492.077 331.886 492.077 334.273C492.077 335.864 492.247 337.222 492.588 338.347C492.935 339.472 493.426 340.33 494.062 340.92C494.705 341.511 495.472 341.807 496.364 341.807ZM511.33 343.239C510.256 343.239 509.295 343.045 508.449 342.659C507.602 342.267 506.932 341.724 506.438 341.031C505.943 340.338 505.682 339.54 505.653 338.636H507.264C507.293 339.273 507.489 339.83 507.852 340.307C508.216 340.778 508.699 341.148 509.301 341.415C509.903 341.676 510.574 341.807 511.312 341.807C512.119 341.807 512.83 341.656 513.443 341.355C514.063 341.054 514.545 340.642 514.892 340.119C515.244 339.591 515.42 338.994 515.42 338.33C515.42 337.625 515.241 337.003 514.884 336.463C514.526 335.923 514.011 335.503 513.341 335.202C512.676 334.901 511.881 334.75 510.955 334.75H509.932V333.318H510.955C511.71 333.318 512.378 333.182 512.957 332.909C513.543 332.631 514.003 332.241 514.338 331.741C514.673 331.241 514.841 330.653 514.841 329.977C514.841 329.335 514.696 328.77 514.406 328.281C514.116 327.793 513.707 327.409 513.179 327.131C512.656 326.852 512.045 326.713 511.347 326.713C510.67 326.713 510.051 326.844 509.489 327.105C508.926 327.366 508.472 327.736 508.125 328.213C507.784 328.69 507.602 329.256 507.58 329.909H506.037C506.06 329 506.31 328.202 506.787 327.514C507.27 326.821 507.909 326.281 508.705 325.895C509.506 325.503 510.392 325.307 511.364 325.307C512.392 325.307 513.281 325.517 514.031 325.938C514.781 326.358 515.361 326.918 515.77 327.616C516.185 328.31 516.392 329.074 516.392 329.909C516.392 330.903 516.122 331.756 515.582 332.466C515.043 333.17 514.315 333.659 513.401 333.932V334.043C514.514 334.264 515.389 334.759 516.026 335.526C516.668 336.287 516.989 337.222 516.989 338.33C516.989 339.261 516.744 340.099 516.256 340.844C515.767 341.582 515.097 342.168 514.244 342.599C513.398 343.026 512.426 343.239 511.33 343.239Z" fill="black"/>
<path d="M689.364 332.239C688.136 332.239 687.088 331.886 686.219 331.182C685.355 330.472 684.69 329.446 684.224 328.105C683.764 326.764 683.534 325.153 683.534 323.273C683.534 321.398 683.764 319.793 684.224 318.457C684.69 317.116 685.358 316.091 686.227 315.381C687.102 314.665 688.148 314.307 689.364 314.307C690.58 314.307 691.622 314.665 692.491 315.381C693.366 316.091 694.034 317.116 694.494 318.457C694.96 319.793 695.193 321.398 695.193 323.273C695.193 325.153 694.96 326.764 694.494 328.105C694.034 329.446 693.369 330.472 692.5 331.182C691.636 331.886 690.591 332.239 689.364 332.239ZM689.364 330.807C690.71 330.807 691.761 330.151 692.517 328.838C693.273 327.52 693.651 325.665 693.651 323.273C693.651 321.682 693.477 320.324 693.131 319.199C692.79 318.068 692.298 317.205 691.656 316.608C691.02 316.011 690.256 315.713 689.364 315.713C688.028 315.713 686.98 316.378 686.219 317.707C685.457 319.031 685.077 320.886 685.077 323.273C685.077 324.864 685.247 326.222 685.588 327.347C685.935 328.472 686.426 329.33 687.062 329.92C687.705 330.511 688.472 330.807 689.364 330.807ZM698.244 328.25V326.955L706.026 314.545H706.98V316.719H706.273L700.026 326.707V326.818H710.227V328.25H698.244ZM706.392 332V327.841V327.244V314.545H707.909V332H706.392Z" fill="black"/>
<path d="M882.364 323.239C881.136 323.239 880.088 322.886 879.219 322.182C878.355 321.472 877.69 320.446 877.224 319.105C876.764 317.764 876.534 316.153 876.534 314.273C876.534 312.398 876.764 310.793 877.224 309.457C877.69 308.116 878.358 307.091 879.227 306.381C880.102 305.665 881.148 305.307 882.364 305.307C883.58 305.307 884.622 305.665 885.491 306.381C886.366 307.091 887.034 308.116 887.494 309.457C887.96 310.793 888.193 312.398 888.193 314.273C888.193 316.153 887.96 317.764 887.494 319.105C887.034 320.446 886.369 321.472 885.5 322.182C884.636 322.886 883.591 323.239 882.364 323.239ZM882.364 321.807C883.71 321.807 884.761 321.151 885.517 319.838C886.273 318.52 886.651 316.665 886.651 314.273C886.651 312.682 886.477 311.324 886.131 310.199C885.79 309.068 885.298 308.205 884.656 307.608C884.02 307.011 883.256 306.713 882.364 306.713C881.028 306.713 879.98 307.378 879.219 308.707C878.457 310.031 878.077 311.886 878.077 314.273C878.077 315.864 878.247 317.222 878.588 318.347C878.935 319.472 879.426 320.33 880.062 320.92C880.705 321.511 881.472 321.807 882.364 321.807ZM896.767 323.239C895.795 323.239 894.926 323.043 894.159 322.651C893.398 322.253 892.79 321.707 892.335 321.014C891.886 320.321 891.648 319.528 891.619 318.636H893.162C893.213 319.562 893.577 320.324 894.253 320.92C894.929 321.511 895.767 321.807 896.767 321.807C897.545 321.807 898.239 321.622 898.847 321.253C899.455 320.878 899.929 320.366 900.27 319.719C900.616 319.065 900.79 318.33 900.79 317.511C900.784 316.659 900.599 315.909 900.236 315.261C899.872 314.608 899.378 314.097 898.753 313.727C898.134 313.358 897.438 313.173 896.665 313.173C896.08 313.168 895.506 313.264 894.943 313.463C894.381 313.662 893.912 313.918 893.537 314.23L891.943 314.026L892.991 305.545H901.616V306.977H894.33L893.631 312.815H893.716C894.102 312.491 894.571 312.227 895.122 312.023C895.679 311.818 896.267 311.716 896.886 311.716C897.915 311.716 898.838 311.963 899.656 312.457C900.48 312.952 901.131 313.634 901.608 314.503C902.091 315.366 902.332 316.361 902.332 317.486C902.332 318.588 902.091 319.574 901.608 320.443C901.131 321.307 900.472 321.989 899.631 322.489C898.795 322.989 897.841 323.239 896.767 323.239Z" fill="black"/>
<path d="M83.3182 367V349.545H93.4432V350.977H84.9119V357.548H92.9062V358.98H84.9119V365.568H93.6136V367H83.3182ZM101.966 367.273C100.892 367.273 99.9517 366.989 99.1449 366.42C98.3381 365.852 97.7074 365.06 97.2528 364.043C96.804 363.026 96.5795 361.841 96.5795 360.489C96.5795 359.142 96.804 357.963 97.2528 356.952C97.7074 355.935 98.3409 355.145 99.1534 354.582C99.9659 354.014 100.912 353.73 101.991 353.73C102.787 353.73 103.449 353.872 103.977 354.156C104.506 354.435 104.929 354.781 105.247 355.196C105.565 355.611 105.813 356.014 105.989 356.406H106.125V349.545H107.651V367H106.168V364.571H105.989C105.813 364.969 105.563 365.378 105.239 365.798C104.915 366.213 104.486 366.562 103.952 366.847C103.423 367.131 102.761 367.273 101.966 367.273ZM102.145 365.884C102.991 365.884 103.713 365.653 104.31 365.193C104.906 364.727 105.361 364.088 105.673 363.276C105.991 362.457 106.151 361.52 106.151 360.463C106.151 359.418 105.994 358.494 105.682 357.693C105.369 356.886 104.915 356.256 104.318 355.801C103.722 355.341 102.997 355.111 102.145 355.111C101.27 355.111 100.531 355.349 99.929 355.827C99.3324 356.298 98.8778 356.937 98.5653 357.744C98.2585 358.551 98.1051 359.457 98.1051 360.463C98.1051 361.48 98.2614 362.398 98.5739 363.216C98.8864 364.034 99.3409 364.685 99.9375 365.168C100.54 365.645 101.276 365.884 102.145 365.884ZM120.29 361.997V353.909H121.807V367H120.29V364.827H120.17C119.864 365.497 119.378 366.057 118.713 366.506C118.048 366.949 117.236 367.17 116.276 367.17C115.44 367.17 114.699 366.989 114.051 366.625C113.403 366.256 112.895 365.716 112.526 365.006C112.156 364.295 111.972 363.423 111.972 362.389V353.909H113.489V362.295C113.489 363.318 113.79 364.142 114.392 364.767C114.994 365.386 115.767 365.696 116.71 365.696C117.301 365.696 117.869 365.554 118.415 365.27C118.96 364.986 119.409 364.571 119.761 364.026C120.114 363.474 120.29 362.798 120.29 361.997ZM130.937 367.273C129.766 367.273 128.746 366.98 127.877 366.395C127.013 365.81 126.343 365.009 125.866 363.991C125.388 362.974 125.15 361.815 125.15 360.514C125.15 359.202 125.391 358.034 125.874 357.011C126.363 355.989 127.039 355.187 127.903 354.608C128.766 354.023 129.769 353.73 130.911 353.73C131.786 353.73 132.579 353.901 133.289 354.241C133.999 354.577 134.585 355.051 135.045 355.665C135.511 356.273 135.803 356.983 135.923 357.795H134.388C134.229 357.057 133.846 356.426 133.238 355.903C132.636 355.375 131.869 355.111 130.937 355.111C130.102 355.111 129.363 355.338 128.721 355.793C128.079 356.241 127.576 356.869 127.212 357.676C126.854 358.477 126.675 359.406 126.675 360.463C126.675 361.526 126.852 362.466 127.204 363.284C127.556 364.097 128.05 364.733 128.687 365.193C129.329 365.653 130.079 365.884 130.937 365.884C131.516 365.884 132.045 365.776 132.522 365.56C133.005 365.338 133.408 365.026 133.732 364.622C134.062 364.219 134.283 363.739 134.397 363.182H135.931C135.817 363.972 135.536 364.676 135.087 365.295C134.644 365.909 134.067 366.392 133.357 366.744C132.653 367.097 131.846 367.273 130.937 367.273ZM142.839 367.298C142.049 367.298 141.327 367.145 140.674 366.838C140.021 366.526 139.501 366.077 139.114 365.491C138.728 364.901 138.535 364.185 138.535 363.344C138.535 362.696 138.657 362.151 138.901 361.707C139.146 361.264 139.492 360.901 139.941 360.616C140.39 360.332 140.921 360.108 141.535 359.943C142.148 359.778 142.825 359.651 143.563 359.56C144.296 359.469 144.915 359.389 145.421 359.321C145.933 359.253 146.322 359.145 146.589 358.997C146.856 358.849 146.989 358.611 146.989 358.281V357.974C146.989 357.082 146.722 356.381 146.188 355.869C145.66 355.352 144.898 355.094 143.904 355.094C142.961 355.094 142.191 355.301 141.594 355.716C141.004 356.131 140.589 356.619 140.35 357.182L138.91 356.662C139.205 355.946 139.614 355.375 140.137 354.949C140.66 354.517 141.245 354.207 141.893 354.02C142.54 353.827 143.197 353.73 143.862 353.73C144.362 353.73 144.881 353.795 145.421 353.926C145.967 354.057 146.472 354.284 146.938 354.608C147.404 354.926 147.782 355.372 148.072 355.946C148.362 356.514 148.506 357.236 148.506 358.111V367H146.989V364.929H146.896C146.714 365.315 146.444 365.69 146.086 366.054C145.728 366.418 145.279 366.716 144.739 366.949C144.2 367.182 143.566 367.298 142.839 367.298ZM143.043 365.909C143.85 365.909 144.549 365.73 145.14 365.372C145.731 365.014 146.185 364.54 146.504 363.949C146.827 363.352 146.989 362.696 146.989 361.98V360.088C146.876 360.196 146.685 360.293 146.418 360.378C146.157 360.463 145.853 360.54 145.506 360.608C145.165 360.67 144.825 360.724 144.484 360.77C144.143 360.815 143.836 360.855 143.563 360.889C142.825 360.98 142.194 361.122 141.671 361.315C141.148 361.509 140.748 361.776 140.469 362.116C140.191 362.452 140.052 362.884 140.052 363.412C140.052 364.207 140.336 364.824 140.904 365.261C141.472 365.693 142.185 365.909 143.043 365.909ZM157.698 353.909V355.23H151.451V353.909H157.698ZM153.403 350.773H154.928V363.582C154.928 364.128 155.022 364.557 155.21 364.869C155.397 365.176 155.641 365.395 155.942 365.526C156.244 365.651 156.565 365.713 156.906 365.713C157.104 365.713 157.275 365.702 157.417 365.679C157.559 365.651 157.684 365.622 157.792 365.594L158.116 366.966C157.968 367.023 157.786 367.074 157.57 367.119C157.354 367.17 157.087 367.196 156.769 367.196C156.212 367.196 155.675 367.074 155.158 366.83C154.647 366.585 154.227 366.222 153.897 365.739C153.567 365.256 153.403 364.656 153.403 363.94V350.773ZM161.161 367V353.909H162.686V367H161.161ZM161.936 351.659C161.624 351.659 161.357 351.554 161.135 351.344C160.913 351.128 160.803 350.869 160.803 350.568C160.803 350.267 160.913 350.011 161.135 349.801C161.357 349.585 161.624 349.477 161.936 349.477C162.249 349.477 162.516 349.585 162.737 349.801C162.959 350.011 163.07 350.267 163.07 350.568C163.07 350.869 162.959 351.128 162.737 351.344C162.516 351.554 162.249 351.659 161.936 351.659ZM171.786 367.273C170.656 367.273 169.656 366.986 168.786 366.412C167.923 365.838 167.246 365.045 166.758 364.034C166.269 363.017 166.025 361.844 166.025 360.514C166.025 359.173 166.269 357.994 166.758 356.977C167.246 355.955 167.923 355.159 168.786 354.591C169.656 354.017 170.656 353.73 171.786 353.73C172.917 353.73 173.914 354.017 174.778 354.591C175.641 355.165 176.317 355.96 176.806 356.977C177.3 357.994 177.548 359.173 177.548 360.514C177.548 361.844 177.303 363.017 176.815 364.034C176.326 365.045 175.647 365.838 174.778 366.412C173.914 366.986 172.917 367.273 171.786 367.273ZM171.786 365.884C172.695 365.884 173.465 365.639 174.096 365.151C174.727 364.662 175.204 364.011 175.528 363.199C175.857 362.386 176.022 361.491 176.022 360.514C176.022 359.537 175.857 358.639 175.528 357.821C175.204 357.003 174.727 356.347 174.096 355.852C173.465 355.358 172.695 355.111 171.786 355.111C170.883 355.111 170.113 355.358 169.477 355.852C168.846 356.347 168.366 357.003 168.036 357.821C167.712 358.639 167.55 359.537 167.55 360.514C167.55 361.491 167.712 362.386 168.036 363.199C168.366 364.011 168.846 364.662 169.477 365.151C170.107 365.639 170.877 365.884 171.786 365.884ZM182.395 358.818V367H180.878V353.909H182.352V355.963H182.489C182.795 355.293 183.273 354.756 183.92 354.352C184.574 353.943 185.381 353.739 186.341 353.739C187.222 353.739 187.994 353.923 188.659 354.293C189.33 354.656 189.849 355.193 190.219 355.903C190.594 356.614 190.781 357.486 190.781 358.52V367H189.264V358.614C189.264 357.54 188.963 356.69 188.361 356.065C187.764 355.44 186.963 355.128 185.957 355.128C185.27 355.128 184.659 355.276 184.125 355.571C183.591 355.866 183.168 356.293 182.855 356.849C182.548 357.401 182.395 358.057 182.395 358.818Z" fill="black"/>
<path d="M259.344 367H257.673L264.023 349.545H265.727L272.077 367H270.406L264.935 351.616H264.815L259.344 367ZM260.545 360.31H269.205V361.741H260.545V360.31ZM283.071 361.997V353.909H284.588V367H283.071V364.827H282.952C282.645 365.497 282.159 366.057 281.494 366.506C280.83 366.949 280.017 367.17 279.057 367.17C278.222 367.17 277.48 366.989 276.832 366.625C276.185 366.256 275.676 365.716 275.307 365.006C274.938 364.295 274.753 363.423 274.753 362.389V353.909H276.27V362.295C276.27 363.318 276.571 364.142 277.173 364.767C277.776 365.386 278.548 365.696 279.491 365.696C280.082 365.696 280.651 365.554 281.196 365.27C281.741 364.986 282.19 364.571 282.543 364.026C282.895 363.474 283.071 362.798 283.071 361.997ZM293.761 353.909V355.23H287.513V353.909H293.761ZM289.465 350.773H290.991V363.582C290.991 364.128 291.085 364.557 291.272 364.869C291.46 365.176 291.704 365.395 292.005 365.526C292.306 365.651 292.627 365.713 292.968 365.713C293.167 365.713 293.337 365.702 293.479 365.679C293.621 365.651 293.746 365.622 293.854 365.594L294.178 366.966C294.031 367.023 293.849 367.074 293.633 367.119C293.417 367.17 293.15 367.196 292.832 367.196C292.275 367.196 291.738 367.074 291.221 366.83C290.71 366.585 290.289 366.222 289.96 365.739C289.63 365.256 289.465 364.656 289.465 363.94V350.773ZM302.153 367.273C301.023 367.273 300.023 366.986 299.153 366.412C298.29 365.838 297.614 365.045 297.125 364.034C296.636 363.017 296.392 361.844 296.392 360.514C296.392 359.173 296.636 357.994 297.125 356.977C297.614 355.955 298.29 355.159 299.153 354.591C300.023 354.017 301.023 353.73 302.153 353.73C303.284 353.73 304.281 354.017 305.145 354.591C306.009 355.165 306.685 355.96 307.173 356.977C307.668 357.994 307.915 359.173 307.915 360.514C307.915 361.844 307.67 363.017 307.182 364.034C306.693 365.045 306.014 365.838 305.145 366.412C304.281 366.986 303.284 367.273 302.153 367.273ZM302.153 365.884C303.063 365.884 303.832 365.639 304.463 365.151C305.094 364.662 305.571 364.011 305.895 363.199C306.224 362.386 306.389 361.491 306.389 360.514C306.389 359.537 306.224 358.639 305.895 357.821C305.571 357.003 305.094 356.347 304.463 355.852C303.832 355.358 303.063 355.111 302.153 355.111C301.25 355.111 300.48 355.358 299.844 355.852C299.213 356.347 298.733 357.003 298.403 357.821C298.08 358.639 297.918 359.537 297.918 360.514C297.918 361.491 298.08 362.386 298.403 363.199C298.733 364.011 299.213 364.662 299.844 365.151C300.474 365.639 301.244 365.884 302.153 365.884ZM311.245 367V353.909H312.719V355.92H312.856C313.117 355.244 313.552 354.713 314.16 354.327C314.773 353.935 315.509 353.739 316.367 353.739C317.271 353.739 318.012 353.952 318.592 354.378C319.177 354.798 319.614 355.378 319.904 356.116H320.015C320.31 355.389 320.79 354.812 321.455 354.386C322.126 353.955 322.938 353.739 323.893 353.739C325.109 353.739 326.069 354.122 326.773 354.889C327.478 355.651 327.83 356.764 327.83 358.23V367H326.313V358.23C326.313 357.196 326.049 356.42 325.521 355.903C324.992 355.386 324.296 355.128 323.433 355.128C322.433 355.128 321.663 355.435 321.123 356.048C320.583 356.662 320.313 357.44 320.313 358.384V367H318.762V358.094C318.762 357.207 318.515 356.491 318.021 355.946C317.526 355.401 316.83 355.128 315.933 355.128C315.33 355.128 314.788 355.276 314.305 355.571C313.827 355.866 313.45 356.278 313.171 356.807C312.898 357.33 312.762 357.932 312.762 358.614V367H311.245ZM336.935 367.273C335.804 367.273 334.804 366.986 333.935 366.412C333.071 365.838 332.395 365.045 331.906 364.034C331.418 363.017 331.173 361.844 331.173 360.514C331.173 359.173 331.418 357.994 331.906 356.977C332.395 355.955 333.071 355.159 333.935 354.591C334.804 354.017 335.804 353.73 336.935 353.73C338.065 353.73 339.062 354.017 339.926 354.591C340.79 355.165 341.466 355.96 341.955 356.977C342.449 357.994 342.696 359.173 342.696 360.514C342.696 361.844 342.452 363.017 341.963 364.034C341.474 365.045 340.795 365.838 339.926 366.412C339.062 366.986 338.065 367.273 336.935 367.273ZM336.935 365.884C337.844 365.884 338.614 365.639 339.244 365.151C339.875 364.662 340.352 364.011 340.676 363.199C341.006 362.386 341.17 361.491 341.17 360.514C341.17 359.537 341.006 358.639 340.676 357.821C340.352 357.003 339.875 356.347 339.244 355.852C338.614 355.358 337.844 355.111 336.935 355.111C336.031 355.111 335.261 355.358 334.625 355.852C333.994 356.347 333.514 357.003 333.185 357.821C332.861 358.639 332.699 359.537 332.699 360.514C332.699 361.491 332.861 362.386 333.185 363.199C333.514 364.011 333.994 364.662 334.625 365.151C335.256 365.639 336.026 365.884 336.935 365.884ZM346.342 367V349.545H347.867V356.406H348.004C348.174 356.014 348.418 355.611 348.737 355.196C349.06 354.781 349.484 354.435 350.006 354.156C350.535 353.872 351.2 353.73 352.001 353.73C353.075 353.73 354.018 354.014 354.83 354.582C355.643 355.145 356.276 355.935 356.731 356.952C357.185 357.963 357.413 359.142 357.413 360.489C357.413 361.841 357.185 363.026 356.731 364.043C356.282 365.06 355.651 365.852 354.839 366.42C354.032 366.989 353.094 367.273 352.026 367.273C351.231 367.273 350.566 367.131 350.032 366.847C349.504 366.562 349.077 366.213 348.754 365.798C348.43 365.378 348.18 364.969 348.004 364.571H347.816V367H346.342ZM347.842 360.463C347.842 361.52 347.998 362.457 348.31 363.276C348.629 364.088 349.083 364.727 349.674 365.193C350.271 365.653 350.992 365.884 351.839 365.884C352.708 365.884 353.444 365.645 354.046 365.168C354.648 364.685 355.106 364.034 355.418 363.216C355.731 362.398 355.887 361.48 355.887 360.463C355.887 359.457 355.731 358.551 355.418 357.744C355.112 356.937 354.657 356.298 354.055 355.827C353.452 355.349 352.714 355.111 351.839 355.111C350.987 355.111 350.262 355.341 349.665 355.801C349.075 356.256 348.623 356.886 348.31 357.693C347.998 358.494 347.842 359.418 347.842 360.463ZM360.762 367V353.909H362.288V367H360.762ZM361.538 351.659C361.225 351.659 360.958 351.554 360.737 351.344C360.515 351.128 360.404 350.869 360.404 350.568C360.404 350.267 360.515 350.011 360.737 349.801C360.958 349.585 361.225 349.477 361.538 349.477C361.85 349.477 362.117 349.585 362.339 349.801C362.56 350.011 362.671 350.267 362.671 350.568C362.671 350.869 362.56 351.128 362.339 351.344C362.117 351.554 361.85 351.659 361.538 351.659ZM367.817 349.545V367H366.3V349.545H367.817ZM377.124 367.273C375.902 367.273 374.845 366.989 373.953 366.42C373.061 365.847 372.371 365.054 371.882 364.043C371.399 363.026 371.158 361.855 371.158 360.531C371.158 359.213 371.399 358.043 371.882 357.02C372.371 355.991 373.044 355.187 373.902 354.608C374.766 354.023 375.763 353.73 376.893 353.73C377.604 353.73 378.288 353.861 378.947 354.122C379.607 354.378 380.197 354.773 380.72 355.307C381.249 355.835 381.666 356.503 381.973 357.31C382.28 358.111 382.433 359.06 382.433 360.156V360.906H372.206V359.568H380.882C380.882 358.727 380.712 357.972 380.371 357.301C380.036 356.625 379.567 356.091 378.964 355.699C378.368 355.307 377.678 355.111 376.893 355.111C376.064 355.111 375.334 355.332 374.703 355.776C374.072 356.219 373.578 356.804 373.22 357.531C372.868 358.259 372.689 359.054 372.683 359.918V360.719C372.683 361.759 372.862 362.668 373.22 363.446C373.584 364.219 374.098 364.818 374.763 365.244C375.428 365.67 376.214 365.884 377.124 365.884C377.743 365.884 378.286 365.787 378.751 365.594C379.223 365.401 379.618 365.142 379.936 364.818C380.26 364.489 380.504 364.128 380.669 363.736L382.109 364.205C381.911 364.756 381.584 365.264 381.129 365.73C380.68 366.196 380.118 366.571 379.442 366.855C378.771 367.134 377.999 367.273 377.124 367.273Z" fill="black"/>
<path d="M454.989 369H453.386C453.267 368.403 453.051 367.852 452.739 367.347C452.432 366.835 452.045 366.389 451.58 366.009C451.114 365.628 450.585 365.332 449.994 365.122C449.403 364.912 448.764 364.807 448.077 364.807C446.974 364.807 445.969 365.094 445.06 365.668C444.156 366.241 443.432 367.085 442.886 368.199C442.347 369.307 442.077 370.665 442.077 372.273C442.077 373.892 442.347 375.256 442.886 376.364C443.432 377.472 444.156 378.312 445.06 378.886C445.969 379.455 446.974 379.739 448.077 379.739C448.764 379.739 449.403 379.634 449.994 379.423C450.585 379.213 451.114 378.92 451.58 378.545C452.045 378.165 452.432 377.719 452.739 377.207C453.051 376.696 453.267 376.142 453.386 375.545H454.989C454.847 376.347 454.58 377.094 454.188 377.787C453.801 378.474 453.307 379.077 452.705 379.594C452.108 380.111 451.42 380.514 450.642 380.804C449.864 381.094 449.009 381.239 448.077 381.239C446.611 381.239 445.31 380.872 444.173 380.139C443.037 379.401 442.145 378.361 441.497 377.02C440.855 375.679 440.534 374.097 440.534 372.273C440.534 370.449 440.855 368.866 441.497 367.526C442.145 366.185 443.037 365.148 444.173 364.415C445.31 363.676 446.611 363.307 448.077 363.307C449.009 363.307 449.864 363.452 450.642 363.741C451.42 364.026 452.108 364.429 452.705 364.952C453.307 365.469 453.801 366.071 454.188 366.759C454.58 367.446 454.847 368.193 454.989 369ZM463.505 381.273C462.374 381.273 461.374 380.986 460.505 380.412C459.641 379.838 458.965 379.045 458.477 378.034C457.988 377.017 457.744 375.844 457.744 374.514C457.744 373.173 457.988 371.994 458.477 370.977C458.965 369.955 459.641 369.159 460.505 368.591C461.374 368.017 462.374 367.73 463.505 367.73C464.636 367.73 465.633 368.017 466.496 368.591C467.36 369.165 468.036 369.96 468.525 370.977C469.019 371.994 469.266 373.173 469.266 374.514C469.266 375.844 469.022 377.017 468.533 378.034C468.045 379.045 467.366 379.838 466.496 380.412C465.633 380.986 464.636 381.273 463.505 381.273ZM463.505 379.884C464.414 379.884 465.184 379.639 465.815 379.151C466.445 378.662 466.923 378.011 467.246 377.199C467.576 376.386 467.741 375.491 467.741 374.514C467.741 373.537 467.576 372.639 467.246 371.821C466.923 371.003 466.445 370.347 465.815 369.852C465.184 369.358 464.414 369.111 463.505 369.111C462.602 369.111 461.832 369.358 461.195 369.852C460.565 370.347 460.085 371.003 459.755 371.821C459.431 372.639 459.269 373.537 459.269 374.514C459.269 375.491 459.431 376.386 459.755 377.199C460.085 378.011 460.565 378.662 461.195 379.151C461.826 379.639 462.596 379.884 463.505 379.884ZM474.114 372.818V381H472.597V367.909H474.071V369.963H474.207C474.514 369.293 474.991 368.756 475.639 368.352C476.293 367.943 477.099 367.739 478.06 367.739C478.94 367.739 479.713 367.923 480.378 368.293C481.048 368.656 481.568 369.193 481.938 369.903C482.312 370.614 482.5 371.486 482.5 372.52V381H480.983V372.614C480.983 371.54 480.682 370.69 480.08 370.065C479.483 369.44 478.682 369.128 477.676 369.128C476.989 369.128 476.378 369.276 475.844 369.571C475.31 369.866 474.886 370.293 474.574 370.849C474.267 371.401 474.114 372.057 474.114 372.818ZM495.29 370.781L493.901 371.173C493.765 370.781 493.572 370.426 493.322 370.108C493.072 369.79 492.745 369.537 492.342 369.349C491.944 369.162 491.45 369.068 490.859 369.068C489.972 369.068 489.245 369.278 488.677 369.699C488.109 370.119 487.825 370.662 487.825 371.327C487.825 371.889 488.018 372.347 488.404 372.699C488.796 373.045 489.398 373.321 490.211 373.526L492.188 374.011C493.285 374.278 494.106 374.702 494.651 375.281C495.202 375.861 495.478 376.588 495.478 377.463C495.478 378.202 495.273 378.858 494.864 379.432C494.455 380.006 493.884 380.457 493.151 380.787C492.424 381.111 491.58 381.273 490.62 381.273C489.342 381.273 488.288 380.986 487.458 380.412C486.629 379.832 486.097 378.997 485.864 377.906L487.322 377.548C487.509 378.327 487.876 378.915 488.421 379.312C488.972 379.71 489.697 379.909 490.594 379.909C491.6 379.909 492.404 379.685 493.006 379.236C493.609 378.781 493.91 378.213 493.91 377.531C493.91 377.003 493.734 376.56 493.381 376.202C493.029 375.838 492.495 375.571 491.779 375.401L489.64 374.889C488.504 374.616 487.663 374.185 487.117 373.594C486.572 373.003 486.299 372.27 486.299 371.395C486.299 370.673 486.495 370.04 486.887 369.494C487.279 368.943 487.819 368.511 488.506 368.199C489.194 367.886 489.978 367.73 490.859 367.73C492.058 367.73 493.015 368.003 493.731 368.548C494.452 369.088 494.972 369.832 495.29 370.781ZM507.118 375.997V367.909H508.635V381H507.118V378.827H506.999C506.692 379.497 506.206 380.057 505.541 380.506C504.876 380.949 504.064 381.17 503.104 381.17C502.268 381.17 501.527 380.989 500.879 380.625C500.232 380.256 499.723 379.716 499.354 379.006C498.984 378.295 498.8 377.423 498.8 376.389V367.909H500.317V376.295C500.317 377.318 500.618 378.142 501.22 378.767C501.822 379.386 502.595 379.696 503.538 379.696C504.129 379.696 504.697 379.554 505.243 379.27C505.788 378.986 506.237 378.571 506.589 378.026C506.942 377.474 507.118 376.798 507.118 375.997ZM512.651 381V367.909H514.126V369.92H514.262C514.523 369.244 514.958 368.713 515.566 368.327C516.18 367.935 516.915 367.739 517.773 367.739C518.677 367.739 519.418 367.952 519.998 368.378C520.583 368.798 521.021 369.378 521.31 370.116H521.421C521.717 369.389 522.197 368.812 522.862 368.386C523.532 367.955 524.344 367.739 525.299 367.739C526.515 367.739 527.475 368.122 528.18 368.889C528.884 369.651 529.237 370.764 529.237 372.23V381H527.719V372.23C527.719 371.196 527.455 370.42 526.927 369.903C526.398 369.386 525.702 369.128 524.839 369.128C523.839 369.128 523.069 369.435 522.529 370.048C521.989 370.662 521.719 371.44 521.719 372.384V381H520.168V372.094C520.168 371.207 519.921 370.491 519.427 369.946C518.933 369.401 518.237 369.128 517.339 369.128C516.737 369.128 516.194 369.276 515.711 369.571C515.234 369.866 514.856 370.278 514.577 370.807C514.305 371.33 514.168 371.932 514.168 372.614V381H512.651ZM538.545 381.273C537.324 381.273 536.267 380.989 535.375 380.42C534.483 379.847 533.793 379.054 533.304 378.043C532.821 377.026 532.58 375.855 532.58 374.531C532.58 373.213 532.821 372.043 533.304 371.02C533.793 369.991 534.466 369.187 535.324 368.608C536.188 368.023 537.185 367.73 538.315 367.73C539.026 367.73 539.71 367.861 540.369 368.122C541.028 368.378 541.619 368.773 542.142 369.307C542.67 369.835 543.088 370.503 543.395 371.31C543.702 372.111 543.855 373.06 543.855 374.156V374.906H533.628V373.568H542.304C542.304 372.727 542.134 371.972 541.793 371.301C541.457 370.625 540.989 370.091 540.386 369.699C539.79 369.307 539.099 369.111 538.315 369.111C537.486 369.111 536.756 369.332 536.125 369.776C535.494 370.219 535 370.804 534.642 371.531C534.29 372.259 534.111 373.054 534.105 373.918V374.719C534.105 375.759 534.284 376.668 534.642 377.446C535.006 378.219 535.52 378.818 536.185 379.244C536.849 379.67 537.636 379.884 538.545 379.884C539.165 379.884 539.707 379.787 540.173 379.594C540.645 379.401 541.04 379.142 541.358 378.818C541.682 378.489 541.926 378.128 542.091 377.736L543.531 378.205C543.332 378.756 543.006 379.264 542.551 379.73C542.102 380.196 541.54 380.571 540.864 380.855C540.193 381.134 539.42 381.273 538.545 381.273ZM547.198 381V367.909H548.673V369.92H548.783C549.045 369.261 549.499 368.73 550.147 368.327C550.8 367.918 551.539 367.713 552.363 367.713C552.488 367.713 552.627 367.716 552.781 367.722C552.934 367.727 553.062 367.733 553.164 367.739V369.281C553.096 369.27 552.977 369.253 552.806 369.23C552.636 369.207 552.451 369.196 552.252 369.196C551.57 369.196 550.962 369.341 550.428 369.631C549.9 369.915 549.482 370.31 549.175 370.815C548.869 371.321 548.715 371.898 548.715 372.545V381H547.198Z" fill="black"/>
<path d="M662.628 368.273C662.628 370.091 662.304 371.673 661.656 373.02C661.009 374.361 660.116 375.401 658.98 376.139C657.849 376.872 656.548 377.239 655.077 377.239C653.605 377.239 652.301 376.872 651.165 376.139C650.034 375.401 649.145 374.361 648.497 373.02C647.855 371.673 647.534 370.091 647.534 368.273C647.534 366.455 647.855 364.875 648.497 363.534C649.145 362.187 650.037 361.148 651.173 360.415C652.31 359.676 653.611 359.307 655.077 359.307C656.548 359.307 657.849 359.676 658.98 360.415C660.116 361.148 661.009 362.187 661.656 363.534C662.304 364.875 662.628 366.455 662.628 368.273ZM661.077 368.273C661.077 366.71 660.815 365.372 660.293 364.259C659.77 363.139 659.057 362.284 658.153 361.693C657.25 361.102 656.224 360.807 655.077 360.807C653.935 360.807 652.912 361.102 652.009 361.693C651.105 362.284 650.389 363.136 649.861 364.25C649.338 365.364 649.077 366.705 649.077 368.273C649.077 369.835 649.338 371.173 649.861 372.287C650.384 373.401 651.097 374.256 652 374.852C652.903 375.443 653.929 375.739 655.077 375.739C656.224 375.739 657.25 375.443 658.153 374.852C659.063 374.261 659.778 373.409 660.301 372.295C660.824 371.176 661.082 369.835 661.077 368.273ZM666.184 377V363.909H667.71V377H666.184ZM666.96 361.659C666.647 361.659 666.38 361.554 666.158 361.344C665.937 361.128 665.826 360.869 665.826 360.568C665.826 360.267 665.937 360.011 666.158 359.801C666.38 359.585 666.647 359.477 666.96 359.477C667.272 359.477 667.539 359.585 667.761 359.801C667.982 360.011 668.093 360.267 668.093 360.568C668.093 360.869 667.982 361.128 667.761 361.344C667.539 361.554 667.272 361.659 666.96 361.659ZM673.239 359.545V377H671.722V359.545H673.239ZM688.673 377.239C687.599 377.239 686.662 377.031 685.861 376.616C685.06 376.196 684.438 375.625 683.994 374.903C683.551 374.182 683.33 373.366 683.33 372.457C683.33 371.798 683.463 371.205 683.73 370.676C684.003 370.142 684.395 369.636 684.906 369.159C685.418 368.676 686.037 368.176 686.764 367.659L689.295 365.776C689.898 365.344 690.355 364.92 690.668 364.506C690.986 364.085 691.145 363.571 691.145 362.963C691.145 362.378 690.923 361.855 690.48 361.395C690.043 360.929 689.474 360.696 688.776 360.696C688.287 360.696 687.849 360.818 687.463 361.062C687.082 361.307 686.778 361.625 686.551 362.017C686.33 362.403 686.219 362.81 686.219 363.236C686.219 363.634 686.321 364.034 686.526 364.438C686.73 364.835 687.006 365.256 687.352 365.699C687.699 366.136 688.085 366.619 688.511 367.148L696.489 377H694.648L687.693 368.469C687.108 367.753 686.588 367.114 686.134 366.551C685.679 365.983 685.321 365.438 685.06 364.915C684.798 364.386 684.668 363.821 684.668 363.219C684.668 362.474 684.841 361.812 685.188 361.233C685.534 360.648 686.011 360.187 686.619 359.852C687.233 359.517 687.935 359.349 688.724 359.349C689.531 359.349 690.23 359.514 690.821 359.844C691.418 360.173 691.878 360.611 692.202 361.156C692.531 361.702 692.696 362.304 692.696 362.963C692.696 363.753 692.491 364.452 692.082 365.06C691.679 365.668 691.091 366.264 690.318 366.849L687.148 369.219C686.278 369.872 685.682 370.477 685.358 371.034C685.034 371.591 684.872 372.065 684.872 372.457C684.872 373.071 685.031 373.636 685.349 374.153C685.668 374.67 686.108 375.085 686.67 375.398C687.239 375.71 687.889 375.869 688.622 375.875C689.349 375.869 690.034 375.724 690.676 375.44C691.318 375.151 691.892 374.739 692.398 374.205C692.909 373.67 693.318 373.031 693.625 372.287C693.938 371.543 694.119 370.713 694.17 369.798L695.645 369.815C695.622 370.753 695.494 371.548 695.261 372.202C695.034 372.849 694.773 373.384 694.477 373.804C694.182 374.224 693.923 374.562 693.702 374.818C693.639 374.903 693.577 374.989 693.514 375.074C693.452 375.159 693.386 375.244 693.318 375.33C692.75 375.955 692.043 376.429 691.196 376.753C690.355 377.077 689.514 377.239 688.673 377.239ZM718.051 365C717.892 364.42 717.659 363.878 717.352 363.372C717.045 362.861 716.665 362.415 716.21 362.034C715.761 361.648 715.241 361.347 714.651 361.131C714.065 360.915 713.412 360.807 712.69 360.807C711.554 360.807 710.537 361.102 709.639 361.693C708.741 362.284 708.031 363.136 707.509 364.25C706.991 365.364 706.733 366.705 706.733 368.273C706.733 369.835 706.994 371.173 707.517 372.287C708.04 373.401 708.756 374.256 709.665 374.852C710.58 375.443 711.625 375.739 712.801 375.739C713.875 375.739 714.824 375.5 715.648 375.023C716.472 374.545 717.114 373.864 717.574 372.977C718.04 372.091 718.267 371.037 718.256 369.815L718.767 369.977H713.176V368.545H719.807V369.977C719.807 371.466 719.506 372.753 718.903 373.838C718.301 374.923 717.474 375.761 716.423 376.352C715.372 376.943 714.165 377.239 712.801 377.239C711.278 377.239 709.946 376.872 708.804 376.139C707.662 375.401 706.773 374.361 706.136 373.02C705.506 371.673 705.19 370.091 705.19 368.273C705.19 366.903 705.372 365.668 705.736 364.565C706.099 363.463 706.614 362.52 707.278 361.736C707.949 360.952 708.741 360.352 709.656 359.938C710.571 359.517 711.582 359.307 712.69 359.307C713.645 359.307 714.517 359.457 715.307 359.759C716.102 360.06 716.801 360.474 717.403 361.003C718.011 361.526 718.509 362.131 718.895 362.818C719.287 363.5 719.551 364.227 719.688 365H718.051ZM727.104 377.298C726.315 377.298 725.593 377.145 724.94 376.838C724.286 376.526 723.766 376.077 723.38 375.491C722.994 374.901 722.8 374.185 722.8 373.344C722.8 372.696 722.923 372.151 723.167 371.707C723.411 371.264 723.758 370.901 724.207 370.616C724.656 370.332 725.187 370.108 725.8 369.943C726.414 369.778 727.09 369.651 727.829 369.56C728.562 369.469 729.181 369.389 729.687 369.321C730.198 369.253 730.587 369.145 730.854 368.997C731.121 368.849 731.255 368.611 731.255 368.281V367.974C731.255 367.082 730.988 366.381 730.454 365.869C729.925 365.352 729.164 365.094 728.17 365.094C727.227 365.094 726.457 365.301 725.86 365.716C725.269 366.131 724.854 366.619 724.616 367.182L723.175 366.662C723.471 365.946 723.88 365.375 724.403 364.949C724.925 364.517 725.511 364.207 726.158 364.02C726.806 363.827 727.462 363.73 728.127 363.73C728.627 363.73 729.147 363.795 729.687 363.926C730.232 364.057 730.738 364.284 731.204 364.608C731.67 364.926 732.048 365.372 732.337 365.946C732.627 366.514 732.772 367.236 732.772 368.111V377H731.255V374.929H731.161C730.979 375.315 730.71 375.69 730.352 376.054C729.994 376.418 729.545 376.716 729.005 376.949C728.465 377.182 727.832 377.298 727.104 377.298ZM727.309 375.909C728.116 375.909 728.815 375.73 729.406 375.372C729.996 375.014 730.451 374.54 730.769 373.949C731.093 373.352 731.255 372.696 731.255 371.98V370.088C731.141 370.196 730.951 370.293 730.684 370.378C730.423 370.463 730.119 370.54 729.772 370.608C729.431 370.67 729.09 370.724 728.749 370.77C728.408 370.815 728.102 370.855 727.829 370.889C727.09 370.98 726.46 371.122 725.937 371.315C725.414 371.509 725.013 371.776 724.735 372.116C724.457 372.452 724.317 372.884 724.317 373.412C724.317 374.207 724.602 374.824 725.17 375.261C725.738 375.693 726.451 375.909 727.309 375.909ZM745.603 366.781L744.214 367.173C744.077 366.781 743.884 366.426 743.634 366.108C743.384 365.79 743.058 365.537 742.654 365.349C742.256 365.162 741.762 365.068 741.171 365.068C740.285 365.068 739.558 365.278 738.989 365.699C738.421 366.119 738.137 366.662 738.137 367.327C738.137 367.889 738.33 368.347 738.717 368.699C739.109 369.045 739.711 369.321 740.523 369.526L742.501 370.011C743.597 370.278 744.418 370.702 744.964 371.281C745.515 371.861 745.79 372.588 745.79 373.463C745.79 374.202 745.586 374.858 745.177 375.432C744.768 376.006 744.197 376.457 743.464 376.787C742.737 377.111 741.893 377.273 740.933 377.273C739.654 377.273 738.6 376.986 737.771 376.412C736.941 375.832 736.41 374.997 736.177 373.906L737.634 373.548C737.822 374.327 738.188 374.915 738.734 375.312C739.285 375.71 740.009 375.909 740.907 375.909C741.913 375.909 742.717 375.685 743.319 375.236C743.921 374.781 744.222 374.213 744.222 373.531C744.222 373.003 744.046 372.56 743.694 372.202C743.342 371.838 742.808 371.571 742.092 371.401L739.952 370.889C738.816 370.616 737.975 370.185 737.43 369.594C736.884 369.003 736.612 368.27 736.612 367.395C736.612 366.673 736.808 366.04 737.2 365.494C737.592 364.943 738.131 364.511 738.819 364.199C739.506 363.886 740.29 363.73 741.171 363.73C742.37 363.73 743.327 364.003 744.043 364.548C744.765 365.088 745.285 365.832 745.603 366.781Z" fill="black"/>
<path d="M840.261 350.977V349.545H852.918V350.977H847.386V367H845.793V350.977H840.261ZM859.585 367.273C858.363 367.273 857.306 366.989 856.414 366.42C855.522 365.847 854.832 365.054 854.343 364.043C853.86 363.026 853.619 361.855 853.619 360.531C853.619 359.213 853.86 358.043 854.343 357.02C854.832 355.991 855.505 355.187 856.363 354.608C857.227 354.023 858.224 353.73 859.354 353.73C860.065 353.73 860.749 353.861 861.408 354.122C862.067 354.378 862.658 354.773 863.181 355.307C863.71 355.835 864.127 356.503 864.434 357.31C864.741 358.111 864.894 359.06 864.894 360.156V360.906H854.667V359.568H863.343C863.343 358.727 863.173 357.972 862.832 357.301C862.496 356.625 862.028 356.091 861.425 355.699C860.829 355.307 860.138 355.111 859.354 355.111C858.525 355.111 857.795 355.332 857.164 355.776C856.533 356.219 856.039 356.804 855.681 357.531C855.329 358.259 855.15 359.054 855.144 359.918V360.719C855.144 361.759 855.323 362.668 855.681 363.446C856.045 364.219 856.559 364.818 857.224 365.244C857.888 365.67 858.675 365.884 859.585 365.884C860.204 365.884 860.746 365.787 861.212 365.594C861.684 365.401 862.079 365.142 862.397 364.818C862.721 364.489 862.965 364.128 863.13 363.736L864.57 364.205C864.371 364.756 864.045 365.264 863.59 365.73C863.141 366.196 862.579 366.571 861.903 366.855C861.232 367.134 860.46 367.273 859.585 367.273ZM873.351 367.273C872.18 367.273 871.161 366.98 870.291 366.395C869.428 365.81 868.757 365.009 868.28 363.991C867.803 362.974 867.564 361.815 867.564 360.514C867.564 359.202 867.805 358.034 868.288 357.011C868.777 355.989 869.453 355.187 870.317 354.608C871.18 354.023 872.183 353.73 873.325 353.73C874.2 353.73 874.993 353.901 875.703 354.241C876.413 354.577 876.999 355.051 877.459 355.665C877.925 356.273 878.217 356.983 878.337 357.795H876.803C876.643 357.057 876.26 356.426 875.652 355.903C875.05 355.375 874.283 355.111 873.351 355.111C872.516 355.111 871.777 355.338 871.135 355.793C870.493 356.241 869.99 356.869 869.626 357.676C869.268 358.477 869.089 359.406 869.089 360.463C869.089 361.526 869.266 362.466 869.618 363.284C869.97 364.097 870.464 364.733 871.101 365.193C871.743 365.653 872.493 365.884 873.351 365.884C873.93 365.884 874.459 365.776 874.936 365.56C875.419 365.338 875.822 365.026 876.146 364.622C876.476 364.219 876.697 363.739 876.811 363.182H878.345C878.232 363.972 877.95 364.676 877.501 365.295C877.058 365.909 876.482 366.392 875.771 366.744C875.067 367.097 874.26 367.273 873.351 367.273ZM883.114 358.818V367H881.597V349.545H883.114V355.963H883.25C883.557 355.287 884.031 354.747 884.673 354.344C885.321 353.94 886.139 353.739 887.128 353.739C888.014 353.739 888.793 353.92 889.463 354.284C890.134 354.648 890.656 355.185 891.031 355.895C891.406 356.605 891.594 357.48 891.594 358.52V367H890.068V358.614C890.068 357.534 889.767 356.685 889.165 356.065C888.568 355.44 887.761 355.128 886.744 355.128C886.045 355.128 885.423 355.276 884.878 355.571C884.332 355.866 883.901 356.293 883.582 356.849C883.27 357.401 883.114 358.057 883.114 358.818ZM897.106 358.818V367H895.589V353.909H897.063V355.963H897.2C897.506 355.293 897.984 354.756 898.631 354.352C899.285 353.943 900.092 353.739 901.052 353.739C901.933 353.739 902.705 353.923 903.37 354.293C904.04 354.656 904.56 355.193 904.93 355.903C905.305 356.614 905.492 357.486 905.492 358.52V367H903.975V358.614C903.975 357.54 903.674 356.69 903.072 356.065C902.475 355.44 901.674 355.128 900.668 355.128C899.981 355.128 899.37 355.276 898.836 355.571C898.302 355.866 897.879 356.293 897.566 356.849C897.259 357.401 897.106 358.057 897.106 358.818ZM914.575 367.273C913.445 367.273 912.445 366.986 911.575 366.412C910.712 365.838 910.036 365.045 909.547 364.034C909.058 363.017 908.814 361.844 908.814 360.514C908.814 359.173 909.058 357.994 909.547 356.977C910.036 355.955 910.712 355.159 911.575 354.591C912.445 354.017 913.445 353.73 914.575 353.73C915.706 353.73 916.703 354.017 917.567 354.591C918.43 355.165 919.107 355.96 919.595 356.977C920.089 357.994 920.337 359.173 920.337 360.514C920.337 361.844 920.092 363.017 919.604 364.034C919.115 365.045 918.436 365.838 917.567 366.412C916.703 366.986 915.706 367.273 914.575 367.273ZM914.575 365.884C915.484 365.884 916.254 365.639 916.885 365.151C917.516 364.662 917.993 364.011 918.317 363.199C918.646 362.386 918.811 361.491 918.811 360.514C918.811 359.537 918.646 358.639 918.317 357.821C917.993 357.003 917.516 356.347 916.885 355.852C916.254 355.358 915.484 355.111 914.575 355.111C913.672 355.111 912.902 355.358 912.266 355.852C911.635 356.347 911.155 357.003 910.825 357.821C910.501 358.639 910.339 359.537 910.339 360.514C910.339 361.491 910.501 362.386 910.825 363.199C911.155 364.011 911.635 364.662 912.266 365.151C912.896 365.639 913.666 365.884 914.575 365.884ZM925.184 349.545V367H923.667V349.545H925.184ZM934.286 367.273C933.156 367.273 932.156 366.986 931.286 366.412C930.423 365.838 929.746 365.045 929.258 364.034C928.769 363.017 928.525 361.844 928.525 360.514C928.525 359.173 928.769 357.994 929.258 356.977C929.746 355.955 930.423 355.159 931.286 354.591C932.156 354.017 933.156 353.73 934.286 353.73C935.417 353.73 936.414 354.017 937.278 354.591C938.141 355.165 938.817 355.96 939.306 356.977C939.8 357.994 940.048 359.173 940.048 360.514C940.048 361.844 939.803 363.017 939.315 364.034C938.826 365.045 938.147 365.838 937.278 366.412C936.414 366.986 935.417 367.273 934.286 367.273ZM934.286 365.884C935.195 365.884 935.965 365.639 936.596 365.151C937.227 364.662 937.704 364.011 938.028 363.199C938.357 362.386 938.522 361.491 938.522 360.514C938.522 359.537 938.357 358.639 938.028 357.821C937.704 357.003 937.227 356.347 936.596 355.852C935.965 355.358 935.195 355.111 934.286 355.111C933.383 355.111 932.613 355.358 931.977 355.852C931.346 356.347 930.866 357.003 930.536 357.821C930.212 358.639 930.05 359.537 930.05 360.514C930.05 361.491 930.212 362.386 930.536 363.199C930.866 364.011 931.346 364.662 931.977 365.151C932.607 365.639 933.377 365.884 934.286 365.884ZM948.372 372.182C947.48 372.182 946.699 372.065 946.028 371.832C945.358 371.605 944.793 371.293 944.332 370.895C943.872 370.497 943.514 370.051 943.259 369.557L944.503 368.739C944.69 369.068 944.94 369.392 945.253 369.71C945.571 370.028 945.983 370.293 946.489 370.503C947 370.713 947.628 370.818 948.372 370.818C949.531 370.818 950.466 370.528 951.176 369.949C951.892 369.369 952.25 368.469 952.25 367.247V364.298H952.114C951.938 364.696 951.685 365.094 951.355 365.491C951.026 365.884 950.594 366.21 950.06 366.472C949.531 366.733 948.875 366.864 948.091 366.864C947.045 366.864 946.116 366.605 945.304 366.088C944.497 365.571 943.861 364.832 943.395 363.872C942.935 362.906 942.705 361.756 942.705 360.42C942.705 359.097 942.929 357.932 943.378 356.926C943.832 355.92 944.466 355.136 945.278 354.574C946.091 354.011 947.037 353.73 948.116 353.73C948.918 353.73 949.582 353.872 950.111 354.156C950.639 354.435 951.063 354.781 951.381 355.196C951.705 355.611 951.957 356.014 952.139 356.406H952.293V353.909H953.776V367.341C953.776 368.449 953.54 369.361 953.068 370.077C952.597 370.793 951.955 371.321 951.142 371.662C950.33 372.009 949.406 372.182 948.372 372.182ZM948.27 365.474C949.111 365.474 949.83 365.273 950.426 364.869C951.023 364.46 951.48 363.875 951.798 363.114C952.116 362.352 952.276 361.446 952.276 360.395C952.276 359.372 952.119 358.466 951.807 357.676C951.494 356.881 951.04 356.256 950.443 355.801C949.852 355.341 949.128 355.111 948.27 355.111C947.395 355.111 946.656 355.347 946.054 355.818C945.452 356.29 944.997 356.926 944.69 357.727C944.384 358.523 944.23 359.412 944.23 360.395C944.23 361.395 944.386 362.278 944.699 363.045C945.011 363.807 945.469 364.403 946.071 364.835C946.673 365.261 947.406 365.474 948.27 365.474ZM958.849 371.909C958.548 371.909 958.266 371.881 958.005 371.824C957.744 371.767 957.536 371.705 957.383 371.636L957.792 370.298C958.309 370.457 958.769 370.514 959.173 370.469C959.576 370.429 959.934 370.247 960.246 369.923C960.559 369.605 960.837 369.116 961.082 368.457L961.559 367.128L956.744 353.909H958.388L962.275 364.997H962.394L966.281 353.909H967.925L962.386 369.071C962.153 369.702 961.866 370.227 961.525 370.648C961.184 371.074 960.789 371.389 960.34 371.594C959.897 371.804 959.4 371.909 958.849 371.909Z" fill="black"/>
<path d="M162.066 130.842C163.294 132.998 164.208 135.244 164.807 137.58C165.406 139.916 165.72 142.327 165.75 144.812V149.439L137 163.859L108.25 149.439C108.25 147.643 108.265 145.965 108.295 144.408C108.325 142.851 108.46 141.339 108.699 139.871C108.939 138.404 109.298 136.936 109.777 135.469C110.257 134.001 110.975 132.459 111.934 130.842L102.5 126.125V152.494C103.368 152.794 104.147 153.213 104.836 153.752C105.525 154.291 106.139 154.92 106.678 155.639C107.217 156.357 107.606 157.136 107.846 157.975C108.085 158.813 108.22 159.697 108.25 160.625V175H91V160.625C91 159.727 91.1348 158.858 91.4043 158.02C91.6738 157.181 92.0632 156.387 92.5723 155.639C93.0814 154.89 93.6803 154.261 94.3691 153.752C95.0579 153.243 95.8516 152.824 96.75 152.494V123.25L91 120.375L137 97.375L183 120.375L162.066 130.842ZM102.5 160.625C102.5 159.846 102.215 159.173 101.646 158.604C101.077 158.035 100.404 157.75 99.625 157.75C98.8464 157.75 98.1725 158.035 97.6035 158.604C97.0345 159.173 96.75 159.846 96.75 160.625V169.25H102.5V160.625ZM103.848 120.375L137 136.951L170.152 120.375L137 103.799L103.848 120.375ZM160 145.891C160 143.585 159.775 141.443 159.326 139.467C158.877 137.49 158.083 135.469 156.945 133.402L137 143.375L117.055 133.402C116.066 135.139 115.318 136.966 114.809 138.883C114.299 140.799 114.03 142.776 114 144.812V145.891L137 157.391L160 145.891Z" fill="white"/>
<path d="M340.673 127.241C340.673 114.142 330.193 103.335 317.094 103.007C303.667 102.68 292.532 113.487 292.205 126.586L285 141.323V141.978C285 142.96 285.655 143.615 286.637 143.615H293.187V152.13C293.187 155.732 296.135 158.68 299.737 158.68H303.012V166.867C303.012 167.849 303.667 168.504 304.649 168.504C305.632 168.504 306.287 167.849 306.287 166.867V158.68H307.924C308.906 158.68 309.561 158.025 309.561 157.042C309.561 156.06 308.906 155.405 307.924 155.405H299.737C297.772 155.405 296.462 154.095 296.462 152.13V142.305C296.462 141.323 295.807 140.668 294.825 140.668H289.257L295.48 127.896C295.48 127.569 295.807 127.569 295.48 127.241C295.48 115.779 304.649 106.282 316.111 106.282C327.573 106.282 337.07 115.452 337.398 126.914L330.52 152.785V153.767L334.123 167.522C334.45 168.177 335.105 168.832 335.76 168.832H336.088C337.07 168.504 337.398 167.849 337.398 166.867L334.123 153.44L341 127.896C340.673 127.569 340.673 127.241 340.673 127.241Z" fill="white"/>
<path d="M312.836 130.197C311.736 130.197 310.662 130.523 309.748 131.134C308.834 131.745 308.121 132.613 307.701 133.629C307.28 134.644 307.17 135.762 307.384 136.84C307.599 137.918 308.128 138.909 308.905 139.686C309.683 140.463 310.673 140.993 311.751 141.207C312.83 141.422 313.947 141.311 314.963 140.891C315.978 140.47 316.847 139.758 317.457 138.844C318.068 137.93 318.394 136.855 318.394 135.756C318.392 134.282 317.806 132.869 316.764 131.827C315.722 130.785 314.309 130.199 312.836 130.197ZM312.836 140.303C311.936 140.303 311.057 140.037 310.309 139.537C309.561 139.037 308.978 138.327 308.634 137.496C308.29 136.665 308.2 135.751 308.375 134.868C308.551 133.986 308.984 133.176 309.62 132.54C310.256 131.904 311.066 131.471 311.949 131.295C312.831 131.12 313.745 131.21 314.576 131.554C315.407 131.898 316.117 132.481 316.617 133.229C317.117 133.977 317.383 134.856 317.383 135.756C317.383 136.962 316.904 138.118 316.051 138.971C315.199 139.824 314.042 140.303 312.836 140.303ZM323.438 136.199C323.449 135.903 323.449 135.609 323.438 135.315L325.438 132.815C325.488 132.753 325.522 132.681 325.538 132.603C325.555 132.526 325.553 132.445 325.533 132.369C325.233 131.25 324.787 130.176 324.205 129.174C324.166 129.105 324.111 129.046 324.046 129.003C323.98 128.959 323.905 128.931 323.826 128.921L320.644 128.568C320.444 128.351 320.235 128.143 320.019 127.942L319.666 124.765C319.657 124.687 319.629 124.612 319.585 124.546C319.541 124.48 319.482 124.425 319.414 124.386C318.413 123.806 317.341 123.36 316.224 123.06C316.147 123.04 316.067 123.037 315.99 123.054C315.912 123.07 315.84 123.104 315.778 123.153L313.279 125.153C312.984 125.141 312.689 125.141 312.395 125.153L309.892 123.153C309.831 123.104 309.758 123.069 309.681 123.053C309.603 123.036 309.523 123.038 309.446 123.059C308.328 123.358 307.255 123.805 306.254 124.386C306.185 124.425 306.127 124.48 306.083 124.546C306.039 124.612 306.011 124.687 306.002 124.765L305.648 127.947C305.431 128.148 305.223 128.356 305.023 128.573L301.846 128.925C301.767 128.935 301.692 128.963 301.626 129.006C301.56 129.05 301.506 129.109 301.467 129.178C300.886 130.178 300.44 131.251 300.14 132.368C300.12 132.444 300.118 132.524 300.134 132.602C300.15 132.679 300.184 132.752 300.234 132.813L302.233 135.312C302.222 135.608 302.222 135.903 302.233 136.196L300.234 138.699C300.184 138.761 300.15 138.833 300.133 138.911C300.117 138.988 300.119 139.068 300.139 139.145C300.438 140.263 300.885 141.336 301.467 142.337C301.506 142.406 301.56 142.465 301.626 142.509C301.692 142.552 301.767 142.58 301.846 142.59L305.028 142.943C305.227 143.159 305.437 143.369 305.653 143.569L306.007 146.752C306.016 146.831 306.044 146.906 306.088 146.972C306.132 147.038 306.19 147.092 306.259 147.131C307.261 147.71 308.335 148.155 309.453 148.452C309.529 148.473 309.609 148.475 309.687 148.459C309.764 148.443 309.837 148.408 309.899 148.359L312.397 146.359C312.693 146.37 312.988 146.37 313.282 146.359L315.782 148.359C315.871 148.431 315.983 148.47 316.097 148.47C316.14 148.47 316.183 148.465 316.224 148.454C317.342 148.154 318.416 147.707 319.417 147.125C319.486 147.086 319.545 147.031 319.589 146.965C319.633 146.9 319.66 146.824 319.67 146.746L320.024 143.564C320.24 143.364 320.449 143.154 320.649 142.938L323.832 142.585C323.911 142.575 323.986 142.547 324.052 142.503C324.118 142.46 324.172 142.401 324.211 142.332C324.79 141.33 325.235 140.257 325.533 139.139C325.553 139.062 325.555 138.982 325.539 138.904C325.523 138.827 325.489 138.754 325.439 138.693L323.438 136.199ZM323.46 141.609L320.343 141.956C320.219 141.969 320.104 142.029 320.021 142.122C319.765 142.411 319.492 142.685 319.203 142.941C319.109 143.024 319.05 143.139 319.036 143.263L318.69 146.378C317.904 146.813 317.071 147.158 316.209 147.408L313.76 145.448C313.671 145.377 313.559 145.338 313.445 145.339H313.414C313.029 145.363 312.643 145.363 312.257 145.339C312.132 145.331 312.009 145.37 311.911 145.448L309.464 147.406C308.601 147.158 307.768 146.813 306.982 146.379L306.636 143.263C306.622 143.139 306.563 143.024 306.469 142.941C306.18 142.685 305.907 142.411 305.65 142.122C305.567 142.029 305.453 141.969 305.328 141.956L302.213 141.609C301.779 140.823 301.433 139.991 301.184 139.128L303.143 136.68C303.221 136.583 303.26 136.459 303.253 136.334C303.23 135.949 303.23 135.562 303.253 135.177C303.26 135.052 303.221 134.929 303.143 134.831L301.185 132.384C301.434 131.521 301.778 130.688 302.212 129.902L305.328 129.556C305.453 129.542 305.567 129.482 305.65 129.389C305.907 129.1 306.18 128.826 306.469 128.57C306.563 128.487 306.622 128.372 306.636 128.248L306.982 125.133C307.768 124.698 308.6 124.353 309.463 124.103L311.911 126.063C312.009 126.141 312.132 126.18 312.257 126.173C312.643 126.149 313.029 126.149 313.414 126.173C313.539 126.18 313.663 126.141 313.76 126.063L316.207 124.105C317.071 124.353 317.903 124.698 318.69 125.132L319.036 128.248C319.05 128.372 319.109 128.487 319.203 128.57C319.492 128.826 319.765 129.1 320.021 129.389C320.104 129.482 320.219 129.542 320.343 129.556L323.458 129.902C323.893 130.688 324.238 131.52 324.488 132.383L322.529 134.831C322.45 134.929 322.411 135.052 322.419 135.177C322.442 135.562 322.442 135.949 322.419 136.334C322.411 136.459 322.45 136.583 322.529 136.68L324.487 139.127C324.238 139.99 323.894 140.823 323.46 141.609Z" fill="white"/>
<path d="M517.125 107.8H508.875V104.2C508.875 103.882 508.73 103.577 508.472 103.351C508.214 103.126 507.865 103 507.5 103C507.135 103 506.786 103.126 506.528 103.351C506.27 103.577 506.125 103.882 506.125 104.2V107.8H486.875V104.2C486.875 103.882 486.73 103.577 486.472 103.351C486.214 103.126 485.865 103 485.5 103C485.135 103 484.786 103.126 484.528 103.351C484.27 103.577 484.125 103.882 484.125 104.2V107.8H475.875C474.052 107.802 472.305 108.435 471.016 109.559C469.727 110.684 469.002 112.209 469 113.8V145C469.002 146.591 469.727 148.116 471.016 149.241C472.305 150.365 474.052 150.998 475.875 151H517.125C518.948 150.999 520.696 150.366 521.985 149.241C523.274 148.116 523.999 146.591 524 145V113.8C523.999 112.209 523.274 110.684 521.985 109.559C520.696 108.434 518.948 107.801 517.125 107.8ZM521.25 145C521.25 145.955 520.815 146.87 520.042 147.546C519.268 148.221 518.219 148.6 517.125 148.6H475.875C474.781 148.6 473.732 148.221 472.958 147.546C472.185 146.87 471.75 145.955 471.75 145V124.6H521.25V145ZM521.25 122.2H471.75V113.8C471.75 111.813 473.593 110.2 475.875 110.2H484.125V113.8C484.125 114.118 484.27 114.423 484.528 114.649C484.786 114.874 485.135 115 485.5 115C485.865 115 486.214 114.874 486.472 114.649C486.73 114.423 486.875 114.118 486.875 113.8V110.2H506.125V113.8C506.125 114.118 506.27 114.423 506.528 114.649C506.786 114.874 507.135 115 507.5 115C507.865 115 508.214 114.874 508.472 114.649C508.73 114.423 508.875 114.118 508.875 113.8V110.2H517.125C518.219 110.2 519.268 110.579 520.042 111.254C520.815 111.93 521.25 112.845 521.25 113.8V122.2Z" fill="white"/>
<circle cx="496" cy="135" r="7.5" stroke="white"/>
<path d="M500 132.564L495.2 137.364L493 135.164L493.564 134.6L495.2 136.232L499.436 132L500 132.564Z" fill="white"/>
<path d="M685.979 118.293L701.5 109.573L717.021 118.293V135.707L701.5 144.427L685.979 135.707V118.293Z" stroke="white"/>
<path d="M695.572 123.289L702 119.577L708.428 123.289V130.711L702 134.423L695.572 130.711V123.289Z" stroke="white"/>
<line x1="701.5" y1="109" x2="701.5" y2="92" stroke="white"/>
<line x1="733.784" y1="112.2" x2="717.951" y2="117.963" stroke="white"/>
<line x1="730.516" y1="147.328" x2="717.628" y2="136.475" stroke="white"/>
<line x1="701.5" y1="162" x2="701.5" y2="145" stroke="white"/>
<line x1="686.41" y1="135.631" x2="673.522" y2="146.485" stroke="white"/>
<line x1="686.045" y1="117.988" x2="670.212" y2="112.225" stroke="white"/>
<path d="M705 88C705 89.5494 703.547 91 701.5 91C699.453 91 698 89.5494 698 88C698 86.4506 699.453 85 701.5 85C703.547 85 705 86.4506 705 88Z" stroke="white" stroke-width="2"/>
<circle cx="738" cy="111" r="3" stroke="white" stroke-width="2"/>
<path d="M737 149C737 150.549 735.547 152 733.5 152C731.453 152 730 150.549 730 149C730 147.451 731.453 146 733.5 146C735.547 146 737 147.451 737 149Z" stroke="white" stroke-width="2"/>
<circle cx="702" cy="166" r="3" stroke="white" stroke-width="2"/>
<circle cx="673" cy="149" r="3" stroke="white" stroke-width="2"/>
<circle cx="666" cy="111" r="3" stroke="white" stroke-width="2"/>
<path d="M867.591 145.955C866.016 145.955 864.668 145.394 863.547 144.274C862.425 143.151 861.864 141.802 861.864 140.227V108.727C861.864 107.152 862.425 105.803 863.547 104.681C864.668 103.56 866.016 103 867.591 103H913.409C914.984 103 916.333 103.56 917.455 104.681C918.576 105.803 919.136 107.152 919.136 108.727V140.227C919.136 141.802 918.576 143.151 917.455 144.274C916.333 145.394 914.984 145.955 913.409 145.955H867.591ZM867.591 140.227H913.409V108.727H867.591V140.227ZM861.864 154.545C861.052 154.545 860.373 154.271 859.825 153.721C859.275 153.173 859 152.493 859 151.682C859 150.87 859.275 150.191 859.825 149.643C860.373 149.093 861.052 148.818 861.864 148.818H919.136C919.948 148.818 920.627 149.093 921.175 149.643C921.725 150.191 922 150.87 922 151.682C922 152.493 921.725 153.173 921.175 153.721C920.627 154.271 919.948 154.545 919.136 154.545H861.864Z" fill="white"/>
<path d="M890.499 117.899C889.391 117.899 888.308 118.227 887.387 118.843C886.466 119.458 885.748 120.333 885.324 121.357C884.9 122.38 884.789 123.507 885.005 124.593C885.221 125.68 885.755 126.678 886.538 127.461C887.321 128.245 888.319 128.778 889.406 128.994C890.493 129.21 891.619 129.099 892.642 128.675C893.666 128.251 894.541 127.533 895.156 126.612C895.772 125.691 896.1 124.608 896.1 123.5C896.098 122.015 895.508 120.592 894.457 119.542C893.407 118.492 891.984 117.901 890.499 117.899ZM890.499 127.641C889.68 127.641 888.879 127.398 888.199 126.943C887.518 126.488 886.987 125.841 886.674 125.085C886.36 124.328 886.278 123.496 886.438 122.693C886.598 121.889 886.992 121.152 887.571 120.573C888.15 119.994 888.888 119.599 889.691 119.44C890.494 119.28 891.327 119.362 892.083 119.675C892.84 119.989 893.486 120.519 893.941 121.2C894.396 121.881 894.639 122.681 894.639 123.5C894.639 124.598 894.203 125.651 893.426 126.428C892.65 127.204 891.597 127.641 890.499 127.641ZM900.971 123.846C900.978 123.616 900.978 123.385 900.971 123.154L902.838 120.821C902.909 120.732 902.959 120.627 902.982 120.515C903.005 120.403 903.002 120.288 902.973 120.177C902.681 119.076 902.244 118.02 901.672 117.034C901.616 116.934 901.536 116.849 901.44 116.786C901.344 116.722 901.235 116.682 901.121 116.669L898.144 116.339C897.987 116.171 897.824 116.009 897.656 115.852L897.325 112.873C897.312 112.759 897.272 112.65 897.209 112.554C897.145 112.458 897.06 112.379 896.96 112.322C895.976 111.752 894.921 111.316 893.822 111.024C893.711 110.995 893.595 110.992 893.483 111.016C893.371 111.041 893.267 111.091 893.178 111.163L890.84 113.034C890.609 113.027 890.379 113.027 890.148 113.034L887.82 111.161C887.731 111.09 887.626 111.041 887.514 111.017C887.402 110.994 887.286 110.997 887.176 111.026C886.075 111.318 885.018 111.756 884.033 112.327C883.933 112.383 883.848 112.463 883.784 112.559C883.721 112.655 883.681 112.764 883.667 112.878L883.342 115.856C883.174 116.013 883.012 116.175 882.855 116.343L879.876 116.681C879.761 116.694 879.652 116.734 879.556 116.798C879.46 116.861 879.381 116.946 879.324 117.046C878.754 118.031 878.318 119.086 878.026 120.185C877.998 120.294 877.995 120.408 878.019 120.519C878.042 120.629 878.091 120.733 878.161 120.821L880.033 123.159C880.025 123.39 880.025 123.621 880.033 123.851L878.16 126.185C878.088 126.275 878.039 126.379 878.016 126.491C877.992 126.603 877.995 126.719 878.025 126.83C878.317 127.928 878.755 128.983 879.325 129.966C879.382 130.066 879.461 130.152 879.557 130.215C879.653 130.278 879.763 130.318 879.877 130.332L882.854 130.662C883.012 130.83 883.174 130.992 883.341 131.149L883.68 134.124C883.693 134.238 883.733 134.347 883.796 134.443C883.86 134.539 883.945 134.618 884.045 134.675C885.029 135.245 886.084 135.681 887.183 135.973C887.293 136.003 887.409 136.006 887.521 135.982C887.633 135.959 887.738 135.909 887.827 135.838L890.153 133.973C890.383 133.98 890.614 133.98 890.845 133.973L893.184 135.845C893.314 135.949 893.475 136.005 893.64 136.005C893.704 136.005 893.767 135.997 893.828 135.981C894.927 135.688 895.981 135.251 896.965 134.68C897.065 134.623 897.15 134.544 897.213 134.448C897.277 134.352 897.317 134.243 897.33 134.128L897.66 131.151C897.828 130.994 897.99 130.832 898.147 130.664L901.126 130.333C901.24 130.32 901.349 130.28 901.445 130.216C901.541 130.153 901.621 130.068 901.677 129.968C902.247 128.984 902.683 127.928 902.975 126.83C903.005 126.719 903.008 126.603 902.984 126.491C902.961 126.379 902.912 126.275 902.84 126.185L900.971 123.846ZM900.594 128.915L897.715 129.236C897.535 129.256 897.369 129.343 897.25 129.479C897.009 129.75 896.752 130.007 896.481 130.248C896.345 130.367 896.259 130.533 896.238 130.713L895.918 133.59C895.244 133.95 894.535 134.241 893.804 134.46L891.542 132.65C891.413 132.547 891.252 132.49 891.086 132.491H891.042C890.68 132.511 890.317 132.511 889.956 132.491C889.775 132.48 889.597 132.536 889.455 132.649L887.195 134.46C886.464 134.24 885.757 133.947 885.084 133.587L884.763 130.71C884.743 130.53 884.656 130.365 884.52 130.245C884.249 130.005 883.992 129.748 883.751 129.477C883.632 129.341 883.466 129.254 883.286 129.233L880.409 128.913C880.05 128.241 879.759 127.535 879.539 126.805L881.349 124.544C881.462 124.402 881.518 124.224 881.507 124.043C881.487 123.682 881.487 123.319 881.507 122.957C881.518 122.777 881.462 122.598 881.349 122.457L879.539 120.197C879.759 119.466 880.052 118.758 880.413 118.085L883.289 117.765C883.469 117.744 883.634 117.657 883.754 117.521C883.995 117.25 884.251 116.994 884.522 116.753C884.658 116.634 884.745 116.468 884.766 116.288L885.086 113.41C885.758 113.051 886.464 112.76 887.194 112.541L889.455 114.35C889.597 114.463 889.775 114.52 889.956 114.509C890.317 114.488 890.68 114.488 891.042 114.509C891.223 114.52 891.401 114.463 891.542 114.35L893.802 112.541C894.534 112.761 895.241 113.053 895.914 113.414L896.234 116.293C896.255 116.473 896.342 116.638 896.478 116.758C896.749 116.999 897.005 117.255 897.246 117.526C897.366 117.662 897.531 117.749 897.711 117.77L900.589 118.09C900.948 118.761 901.239 119.467 901.458 120.195L899.649 122.457C899.536 122.598 899.479 122.777 899.49 122.957C899.511 123.319 899.511 123.682 899.49 124.043C899.479 124.224 899.536 124.402 899.649 124.544L901.458 126.804C901.239 127.535 900.947 128.242 900.587 128.915H900.594Z" fill="white"/>
<defs>
<filter id="filter0_d_306_41" x="8.71582" y="12.7157" width="240.858" height="240.858" filterUnits="userSpaceOnUse" color-interpolation-filters="sRGB">
<feFlood flood-opacity="0" result="BackgroundImageFix"/>
<feColorMatrix in="SourceAlpha" type="matrix" values="0 0 0 0 0 0 0 0 0 0 0 0 0 0 0 0 0 0 127 0" result="hardAlpha"/>
<feOffset dy="4"/>
<feGaussianBlur stdDeviation="2"/>
<feComposite in2="hardAlpha" operator="out"/>
<feColorMatrix type="matrix" values="0 0 0 0 0 0 0 0 0 0 0 0 0 0 0 0 0 0 0.25 0"/>
<feBlend mode="normal" in2="BackgroundImageFix" result="effect1_dropShadow_306_41"/>
<feBlend mode="normal" in="SourceGraphic" in2="effect1_dropShadow_306_41" result="shape"/>
</filter>
<filter id="filter1_d_306_41" x="383.58" y="12.7157" width="240.858" height="240.858" filterUnits="userSpaceOnUse" color-interpolation-filters="sRGB">
<feFlood flood-opacity="0" result="BackgroundImageFix"/>
<feColorMatrix in="SourceAlpha" type="matrix" values="0 0 0 0 0 0 0 0 0 0 0 0 0 0 0 0 0 0 127 0" result="hardAlpha"/>
<feOffset dy="4"/>
<feGaussianBlur stdDeviation="2"/>
<feComposite in2="hardAlpha" operator="out"/>
<feColorMatrix type="matrix" values="0 0 0 0 0 0 0 0 0 0 0 0 0 0 0 0 0 0 0.25 0"/>
<feBlend mode="normal" in2="BackgroundImageFix" result="effect1_dropShadow_306_41"/>
<feBlend mode="normal" in="SourceGraphic" in2="effect1_dropShadow_306_41" result="shape"/>
</filter>
<filter id="filter2_d_306_41" x="576.743" y="12.7157" width="240.858" height="240.858" filterUnits="userSpaceOnUse" color-interpolation-filters="sRGB">
<feFlood flood-opacity="0" result="BackgroundImageFix"/>
<feColorMatrix in="SourceAlpha" type="matrix" values="0 0 0 0 0 0 0 0 0 0 0 0 0 0 0 0 0 0 127 0" result="hardAlpha"/>
<feOffset dy="4"/>
<feGaussianBlur stdDeviation="2"/>
<feComposite in2="hardAlpha" operator="out"/>
<feColorMatrix type="matrix" values="0 0 0 0 0 0 0 0 0 0 0 0 0 0 0 0 0 0 0.25 0"/>
<feBlend mode="normal" in2="BackgroundImageFix" result="effect1_dropShadow_306_41"/>
<feBlend mode="normal" in="SourceGraphic" in2="effect1_dropShadow_306_41" result="shape"/>
</filter>
<filter id="filter3_d_306_41" x="769.906" y="12.7157" width="240.858" height="240.858" filterUnits="userSpaceOnUse" color-interpolation-filters="sRGB">
<feFlood flood-opacity="0" result="BackgroundImageFix"/>
<feColorMatrix in="SourceAlpha" type="matrix" values="0 0 0 0 0 0 0 0 0 0 0 0 0 0 0 0 0 0 127 0" result="hardAlpha"/>
<feOffset dy="4"/>
<feGaussianBlur stdDeviation="2"/>
<feComposite in2="hardAlpha" operator="out"/>
<feColorMatrix type="matrix" values="0 0 0 0 0 0 0 0 0 0 0 0 0 0 0 0 0 0 0.25 0"/>
<feBlend mode="normal" in2="BackgroundImageFix" result="effect1_dropShadow_306_41"/>
<feBlend mode="normal" in="SourceGraphic" in2="effect1_dropShadow_306_41" result="shape"/>
</filter>
<filter id="filter4_d_306_41" x="99.2759" y="293.276" width="62.5632" height="62.5634" filterUnits="userSpaceOnUse" color-interpolation-filters="sRGB">
<feFlood flood-opacity="0" result="BackgroundImageFix"/>
<feColorMatrix in="SourceAlpha" type="matrix" values="0 0 0 0 0 0 0 0 0 0 0 0 0 0 0 0 0 0 127 0" result="hardAlpha"/>
<feOffset dy="4"/>
<feGaussianBlur stdDeviation="2"/>
<feComposite in2="hardAlpha" operator="out"/>
<feColorMatrix type="matrix" values="0 0 0 0 0 0 0 0 0 0 0 0 0 0 0 0 0 0 0.25 0"/>
<feBlend mode="normal" in2="BackgroundImageFix" result="effect1_dropShadow_306_41"/>
<feBlend mode="normal" in="SourceGraphic" in2="effect1_dropShadow_306_41" result="shape"/>
</filter>
<filter id="filter5_d_306_41" x="281.276" y="293.281" width="62.5632" height="62.5634" filterUnits="userSpaceOnUse" color-interpolation-filters="sRGB">
<feFlood flood-opacity="0" result="BackgroundImageFix"/>
<feColorMatrix in="SourceAlpha" type="matrix" values="0 0 0 0 0 0 0 0 0 0 0 0 0 0 0 0 0 0 127 0" result="hardAlpha"/>
<feOffset dy="4"/>
<feGaussianBlur stdDeviation="2"/>
<feComposite in2="hardAlpha" operator="out"/>
<feColorMatrix type="matrix" values="0 0 0 0 0 0 0 0 0 0 0 0 0 0 0 0 0 0 0.25 0"/>
<feBlend mode="normal" in2="BackgroundImageFix" result="effect1_dropShadow_306_41"/>
<feBlend mode="normal" in="SourceGraphic" in2="effect1_dropShadow_306_41" result="shape"/>
</filter>
<filter id="filter6_d_306_41" x="472.276" y="306.276" width="62.5632" height="62.5634" filterUnits="userSpaceOnUse" color-interpolation-filters="sRGB">
<feFlood flood-opacity="0" result="BackgroundImageFix"/>
<feColorMatrix in="SourceAlpha" type="matrix" values="0 0 0 0 0 0 0 0 0 0 0 0 0 0 0 0 0 0 127 0" result="hardAlpha"/>
<feOffset dy="4"/>
<feGaussianBlur stdDeviation="2"/>
<feComposite in2="hardAlpha" operator="out"/>
<feColorMatrix type="matrix" values="0 0 0 0 0 0 0 0 0 0 0 0 0 0 0 0 0 0 0.25 0"/>
<feBlend mode="normal" in2="BackgroundImageFix" result="effect1_dropShadow_306_41"/>
<feBlend mode="normal" in="SourceGraphic" in2="effect1_dropShadow_306_41" result="shape"/>
</filter>
<filter id="filter7_d_306_41" x="665.276" y="295.276" width="62.5632" height="62.5634" filterUnits="userSpaceOnUse" color-interpolation-filters="sRGB">
<feFlood flood-opacity="0" result="BackgroundImageFix"/>
<feColorMatrix in="SourceAlpha" type="matrix" values="0 0 0 0 0 0 0 0 0 0 0 0 0 0 0 0 0 0 127 0" result="hardAlpha"/>
<feOffset dy="4"/>
<feGaussianBlur stdDeviation="2"/>
<feComposite in2="hardAlpha" operator="out"/>
<feColorMatrix type="matrix" values="0 0 0 0 0 0 0 0 0 0 0 0 0 0 0 0 0 0 0.25 0"/>
<feBlend mode="normal" in2="BackgroundImageFix" result="effect1_dropShadow_306_41"/>
<feBlend mode="normal" in="SourceGraphic" in2="effect1_dropShadow_306_41" result="shape"/>
</filter>
<filter id="filter8_d_306_41" x="858.276" y="286.276" width="62.5632" height="62.5634" filterUnits="userSpaceOnUse" color-interpolation-filters="sRGB">
<feFlood flood-opacity="0" result="BackgroundImageFix"/>
<feColorMatrix in="SourceAlpha" type="matrix" values="0 0 0 0 0 0 0 0 0 0 0 0 0 0 0 0 0 0 127 0" result="hardAlpha"/>
<feOffset dy="4"/>
<feGaussianBlur stdDeviation="2"/>
<feComposite in2="hardAlpha" operator="out"/>
<feColorMatrix type="matrix" values="0 0 0 0 0 0 0 0 0 0 0 0 0 0 0 0 0 0 0.25 0"/>
<feBlend mode="normal" in2="BackgroundImageFix" result="effect1_dropShadow_306_41"/>
<feBlend mode="normal" in="SourceGraphic" in2="effect1_dropShadow_306_41" result="shape"/>
</filter>
<linearGradient id="paint0_linear_306_41" x1="130.558" y1="297.278" x2="130.558" y2="343.837" gradientUnits="userSpaceOnUse">
<stop stop-color="#018FFF"/>
<stop offset="0.448958" stop-color="#56B4FF" stop-opacity="0.858333"/>
<stop offset="0.766667" stop-color="#377EB6" stop-opacity="0.769792"/>
<stop offset="0.964583" stop-color="#117BCF"/>
</linearGradient>
<linearGradient id="paint1_linear_306_41" x1="312.558" y1="297.283" x2="312.558" y2="343.842" gradientUnits="userSpaceOnUse">
<stop stop-color="#018FFF"/>
<stop offset="0.448958" stop-color="#56B4FF" stop-opacity="0.858333"/>
<stop offset="0.766667" stop-color="#377EB6" stop-opacity="0.769792"/>
<stop offset="0.964583" stop-color="#117BCF"/>
</linearGradient>
<linearGradient id="paint2_linear_306_41" x1="503.558" y1="310.278" x2="503.558" y2="356.837" gradientUnits="userSpaceOnUse">
<stop stop-color="#018FFF"/>
<stop offset="0.448958" stop-color="#56B4FF" stop-opacity="0.858333"/>
<stop offset="0.766667" stop-color="#377EB6" stop-opacity="0.769792"/>
<stop offset="0.964583" stop-color="#117BCF"/>
</linearGradient>
<linearGradient id="paint3_linear_306_41" x1="696.558" y1="299.278" x2="696.558" y2="345.837" gradientUnits="userSpaceOnUse">
<stop stop-color="#018FFF"/>
<stop offset="0.448958" stop-color="#56B4FF" stop-opacity="0.858333"/>
<stop offset="0.766667" stop-color="#377EB6" stop-opacity="0.769792"/>
<stop offset="0.964583" stop-color="#117BCF"/>
</linearGradient>
<linearGradient id="paint4_linear_306_41" x1="889.558" y1="290.278" x2="889.558" y2="336.837" gradientUnits="userSpaceOnUse">
<stop stop-color="#018FFF"/>
<stop offset="0.448958" stop-color="#56B4FF" stop-opacity="0.858333"/>
<stop offset="0.766667" stop-color="#377EB6" stop-opacity="0.769792"/>
<stop offset="0.964583" stop-color="#117BCF"/>
</linearGradient>
</defs>
</svg>
