<svg width="167" height="167" viewBox="0 0 167 167" fill="none" xmlns="http://www.w3.org/2000/svg">
<path d="M82.7886 100.927V85.6758M82.7886 85.6758C84.2584 85.6769 85.7225 85.4924 87.1461 85.1267M82.7886 85.6758C81.3188 85.6769 79.8548 85.4924 78.4312 85.1267M89.3248 106.85C85.006 107.67 80.5713 107.67 76.2525 106.85M87.1461 113.773C84.249 114.076 81.3282 114.076 78.4312 113.773M89.3248 100.927V100.369C89.3248 97.5135 91.2363 95.0733 93.7055 93.6412C97.8538 91.2389 101.094 87.5356 102.924 83.105C104.754 78.6744 105.072 73.764 103.828 69.1345C102.585 64.505 99.8487 60.4149 96.0447 57.4979C92.2407 54.581 87.5809 53 82.7872 53C77.9935 53 73.3337 54.581 69.5297 57.4979C65.7256 60.4149 62.9898 64.505 61.7461 69.1345C60.5024 73.764 60.8202 78.6744 62.6503 83.105C64.4804 87.5356 67.7206 91.2389 71.8689 93.6412C74.3381 95.0733 76.2525 97.5135 76.2525 100.369V100.927" stroke="#85B6FF" stroke-width="2.5" stroke-linecap="round" stroke-linejoin="round"/>
<circle cx="83.5002" cy="83.5" r="77.5" transform="rotate(-95.9233 83.5002 83.5)" stroke="url(#paint0_linear_296_194)" stroke-width="10"/>
<defs>
<linearGradient id="paint0_linear_296_194" x1="83.5002" y1="11" x2="83.5002" y2="156" gradientUnits="userSpaceOnUse">
<stop stop-color="#018FFF"/>
<stop offset="0.448958" stop-color="#56B4FF" stop-opacity="0.858333"/>
<stop offset="0.766667" stop-color="#377EB6" stop-opacity="0.769792"/>
<stop offset="0.964583" stop-color="#117BCF"/>
</linearGradient>
</defs>
</svg>
