<svg width="273" height="167" viewBox="0 0 273 167" fill="none" xmlns="http://www.w3.org/2000/svg">
<path d="M188.789 100.927V85.6758M188.789 85.6758C190.258 85.6769 191.723 85.4924 193.146 85.1267M188.789 85.6758C187.319 85.6769 185.855 85.4924 184.431 85.1267M195.325 106.85C191.006 107.67 186.571 107.67 182.252 106.85M193.146 113.773C190.249 114.076 187.328 114.076 184.431 113.773M195.325 100.927V100.369C195.325 97.5135 197.236 95.0733 199.705 93.6412C203.854 91.2389 207.094 87.5356 208.924 83.105C210.754 78.6744 211.072 73.764 209.828 69.1345C208.585 64.505 205.849 60.4149 202.045 57.4979C198.241 54.581 193.581 53 188.787 53C183.994 53 179.334 54.581 175.53 57.4979C171.726 60.4149 168.99 64.505 167.746 69.1345C166.502 73.764 166.82 78.6744 168.65 83.105C170.48 87.5356 173.721 91.2389 177.869 93.6412C180.338 95.0733 182.252 97.5135 182.252 100.369V100.927" stroke="#85B6FF" stroke-width="2.5" stroke-linecap="round" stroke-linejoin="round"/>
<circle cx="189.5" cy="83.5" r="77.5" transform="rotate(-95.9233 189.5 83.5)" stroke="url(#paint0_linear_296_194)" stroke-width="10"/>
<path d="M156.153 16.9996C158.362 16.965 160.125 15.1464 160.09 12.9376C160.056 10.7287 158.237 8.96602 156.028 9.00054L156.153 16.9996ZM15.0625 19.2041L156.153 16.9996L156.028 9.00054L14.9375 11.2051L15.0625 19.2041Z" fill="url(#paint1_linear_296_194)"/>
<path d="M0 14.5455L21.8182 1.94875L21.8182 27.1422L0 14.5455Z" fill="#058AF3"/>
<defs>
<linearGradient id="paint0_linear_296_194" x1="189.5" y1="11" x2="189.5" y2="156" gradientUnits="userSpaceOnUse">
<stop stop-color="#018FFF"/>
<stop offset="0.448958" stop-color="#56B4FF" stop-opacity="0.858333"/>
<stop offset="0.766667" stop-color="#377EB6" stop-opacity="0.769792"/>
<stop offset="0.964583" stop-color="#117BCF"/>
</linearGradient>
<linearGradient id="paint1_linear_296_194" x1="22.6369" y1="15.2178" x2="156.092" y2="13.0623" gradientUnits="userSpaceOnUse">
<stop stop-color="#018FFF"/>
<stop offset="0.313542" stop-color="#117BCF"/>
<stop offset="0.620833" stop-color="#6AB1EA"/>
<stop offset="1" stop-color="#52B3FF"/>
</linearGradient>
</defs>
</svg>
