<svg width="1237" height="211" viewBox="0 0 1237 211" fill="none" xmlns="http://www.w3.org/2000/svg">
<circle cx="122" cy="50" r="50" fill="#6FD1D1"/>
<path d="M113.045 63.358C111.205 63.358 109.632 62.8295 108.328 61.7727C107.033 60.7074 106.036 59.169 105.337 57.1577C104.646 55.1463 104.301 52.7301 104.301 49.9091C104.301 47.0966 104.646 44.6889 105.337 42.6861C106.036 40.6747 107.037 39.1364 108.341 38.071C109.653 36.9972 111.222 36.4602 113.045 36.4602C114.869 36.4602 116.433 36.9972 117.737 38.071C119.05 39.1364 120.051 40.6747 120.741 42.6861C121.44 44.6889 121.79 47.0966 121.79 49.9091C121.79 52.7301 121.44 55.1463 120.741 57.1577C120.051 59.169 119.054 60.7074 117.75 61.7727C116.455 62.8295 114.886 63.358 113.045 63.358ZM113.045 61.2102C115.065 61.2102 116.642 60.2259 117.776 58.2571C118.909 56.2798 119.476 53.4972 119.476 49.9091C119.476 47.5227 119.216 45.4858 118.696 43.7983C118.185 42.1023 117.447 40.8068 116.484 39.9119C115.53 39.017 114.384 38.5696 113.045 38.5696C111.043 38.5696 109.47 39.5668 108.328 41.5611C107.186 43.5469 106.615 46.3295 106.615 49.9091C106.615 52.2955 106.871 54.3324 107.382 56.0199C107.902 57.7074 108.639 58.9943 109.594 59.8807C110.557 60.767 111.707 61.2102 113.045 61.2102ZM135.072 36.8182V63H132.682V39.3239H132.528L126.392 43.402V40.9219L132.58 36.8182H135.072Z" fill="white"/>
<circle cx="453" cy="50" r="50" fill="#1BB8D7"/>
<circle cx="784" cy="50" r="50" fill="#018FFF"/>
<circle cx="1115" cy="50" r="50" fill="#165C80"/>
<path d="M445.045 63.358C443.205 63.358 441.632 62.8295 440.328 61.7727C439.033 60.7074 438.036 59.169 437.337 57.1577C436.646 55.1463 436.301 52.7301 436.301 49.9091C436.301 47.0966 436.646 44.6889 437.337 42.6861C438.036 40.6747 439.037 39.1364 440.341 38.071C441.653 36.9972 443.222 36.4602 445.045 36.4602C446.869 36.4602 448.433 36.9972 449.737 38.071C451.05 39.1364 452.051 40.6747 452.741 42.6861C453.44 44.6889 453.79 47.0966 453.79 49.9091C453.79 52.7301 453.44 55.1463 452.741 57.1577C452.051 59.169 451.054 60.7074 449.75 61.7727C448.455 62.8295 446.886 63.358 445.045 63.358ZM445.045 61.2102C447.065 61.2102 448.642 60.2259 449.776 58.2571C450.909 56.2798 451.476 53.4972 451.476 49.9091C451.476 47.5227 451.216 45.4858 450.696 43.7983C450.185 42.1023 449.447 40.8068 448.484 39.9119C447.53 39.017 446.384 38.5696 445.045 38.5696C443.043 38.5696 441.47 39.5668 440.328 41.5611C439.186 43.5469 438.615 46.3295 438.615 49.9091C438.615 52.2955 438.871 54.3324 439.382 56.0199C439.902 57.7074 440.639 58.9943 441.594 59.8807C442.557 60.767 443.707 61.2102 445.045 61.2102ZM458.993 63V61.2486L467.545 51.6349C468.662 50.3736 469.561 49.2955 470.243 48.4006C470.925 47.5057 471.419 46.679 471.726 45.9205C472.041 45.1619 472.199 44.3736 472.199 43.5554C472.199 42.5582 471.964 41.6889 471.496 40.9474C471.036 40.1974 470.401 39.6136 469.591 39.196C468.781 38.7784 467.869 38.5696 466.855 38.5696C465.781 38.5696 464.839 38.7997 464.03 39.2599C463.229 39.7202 462.607 40.3509 462.163 41.152C461.72 41.9531 461.499 42.8736 461.499 43.9134H459.21C459.21 42.4645 459.543 41.1818 460.207 40.0653C460.881 38.9403 461.797 38.0582 462.956 37.419C464.124 36.7798 465.445 36.4602 466.919 36.4602C468.376 36.4602 469.672 36.7756 470.805 37.4062C471.939 38.0284 472.83 38.8764 473.477 39.9503C474.125 41.0241 474.449 42.2259 474.449 43.5554C474.449 44.5185 474.278 45.4517 473.938 46.3551C473.605 47.2585 473.03 48.2642 472.212 49.3722C471.393 50.4801 470.26 51.8352 468.811 53.4375L462.317 60.6861V60.8523H475.267V63H458.993Z" fill="white"/>
<path d="M773.045 63.358C771.205 63.358 769.632 62.8295 768.328 61.7727C767.033 60.7074 766.036 59.169 765.337 57.1577C764.646 55.1463 764.301 52.7301 764.301 49.9091C764.301 47.0966 764.646 44.6889 765.337 42.6861C766.036 40.6747 767.037 39.1364 768.341 38.071C769.653 36.9972 771.222 36.4602 773.045 36.4602C774.869 36.4602 776.433 36.9972 777.737 38.071C779.05 39.1364 780.051 40.6747 780.741 42.6861C781.44 44.6889 781.79 47.0966 781.79 49.9091C781.79 52.7301 781.44 55.1463 780.741 57.1577C780.051 59.169 779.054 60.7074 777.75 61.7727C776.455 62.8295 774.886 63.358 773.045 63.358ZM773.045 61.2102C775.065 61.2102 776.642 60.2259 777.776 58.2571C778.909 56.2798 779.476 53.4972 779.476 49.9091C779.476 47.5227 779.216 45.4858 778.696 43.7983C778.185 42.1023 777.447 40.8068 776.484 39.9119C775.53 39.017 774.384 38.5696 773.045 38.5696C771.043 38.5696 769.47 39.5668 768.328 41.5611C767.186 43.5469 766.615 46.3295 766.615 49.9091C766.615 52.2955 766.871 54.3324 767.382 56.0199C767.902 57.7074 768.639 58.9943 769.594 59.8807C770.557 60.767 771.707 61.2102 773.045 61.2102ZM795.494 63.358C793.884 63.358 792.443 63.0682 791.173 62.4886C789.903 61.9006 788.898 61.0866 788.156 60.0469C787.415 59.0071 787.023 57.8097 786.98 56.4545H789.396C789.439 57.4091 789.733 58.2443 790.278 58.9602C790.824 59.6676 791.548 60.2216 792.452 60.6222C793.355 61.0142 794.361 61.2102 795.469 61.2102C796.679 61.2102 797.744 60.9844 798.665 60.5327C799.594 60.081 800.318 59.4631 800.838 58.679C801.366 57.8864 801.631 56.9915 801.631 55.9943C801.631 54.9375 801.362 54.0043 800.825 53.1946C800.288 52.3849 799.517 51.7543 798.511 51.3026C797.514 50.8509 796.321 50.625 794.932 50.625H793.398V48.4773H794.932C796.065 48.4773 797.067 48.2727 797.936 47.8636C798.814 47.446 799.504 46.8622 800.007 46.1122C800.51 45.3622 800.761 44.4801 800.761 43.4659C800.761 42.5028 800.544 41.6548 800.109 40.9219C799.675 40.1889 799.061 39.6136 798.268 39.196C797.484 38.7784 796.568 38.5696 795.52 38.5696C794.506 38.5696 793.577 38.7656 792.733 39.1577C791.889 39.5497 791.207 40.1037 790.688 40.8196C790.176 41.5355 789.903 42.3835 789.869 43.3636H787.555C787.589 42 787.964 40.8026 788.68 39.7713C789.405 38.7315 790.364 37.9219 791.557 37.3423C792.759 36.7543 794.088 36.4602 795.545 36.4602C797.088 36.4602 798.422 36.7756 799.547 37.4062C800.672 38.0369 801.541 38.8764 802.155 39.9247C802.777 40.9645 803.088 42.1108 803.088 43.3636C803.088 44.8551 802.683 46.1335 801.874 47.1989C801.064 48.2557 799.973 48.9886 798.601 49.3977V49.5639C800.271 49.8963 801.584 50.6378 802.538 51.7884C803.501 52.9304 803.983 54.3324 803.983 55.9943C803.983 57.392 803.616 58.6491 802.884 59.7656C802.151 60.8736 801.145 61.7514 799.866 62.3991C798.597 63.0384 797.139 63.358 795.494 63.358Z" fill="white"/>
<path d="M1104.05 63.358C1102.2 63.358 1100.63 62.8295 1099.33 61.7727C1098.03 60.7074 1097.04 59.169 1096.34 57.1577C1095.65 55.1463 1095.3 52.7301 1095.3 49.9091C1095.3 47.0966 1095.65 44.6889 1096.34 42.6861C1097.04 40.6747 1098.04 39.1364 1099.34 38.071C1100.65 36.9972 1102.22 36.4602 1104.05 36.4602C1105.87 36.4602 1107.43 36.9972 1108.74 38.071C1110.05 39.1364 1111.05 40.6747 1111.74 42.6861C1112.44 44.6889 1112.79 47.0966 1112.79 49.9091C1112.79 52.7301 1112.44 55.1463 1111.74 57.1577C1111.05 59.169 1110.05 60.7074 1108.75 61.7727C1107.45 62.8295 1105.89 63.358 1104.05 63.358ZM1104.05 61.2102C1106.07 61.2102 1107.64 60.2259 1108.78 58.2571C1109.91 56.2798 1110.48 53.4972 1110.48 49.9091C1110.48 47.5227 1110.22 45.4858 1109.7 43.7983C1109.18 42.1023 1108.45 40.8068 1107.48 39.9119C1106.53 39.017 1105.38 38.5696 1104.05 38.5696C1102.04 38.5696 1100.47 39.5668 1099.33 41.5611C1098.19 43.5469 1097.62 46.3295 1097.62 49.9091C1097.62 52.2955 1097.87 54.3324 1098.38 56.0199C1098.9 57.7074 1099.64 58.9943 1100.59 59.8807C1101.56 60.767 1102.71 61.2102 1104.05 61.2102ZM1117.37 57.375V55.4318L1129.04 36.8182H1130.47V40.0781H1129.41L1120.04 55.0611V55.2273H1135.34V57.375H1117.37ZM1129.59 63V56.7614V55.8665V36.8182H1131.86V63H1129.59Z" fill="white"/>
<line x1="334" y1="138" x2="578" y2="138" stroke="#1BB8D7" stroke-width="6"/>
<line x1="662" y1="138" x2="906" y2="138" stroke="#018FFF" stroke-width="6"/>
<line x1="993" y1="138" x2="1237" y2="138" stroke="#165C80" stroke-width="6"/>
<line y1="138" x2="244" y2="138" stroke="#6FD1D1" stroke-width="6"/>
<path d="M15.9886 193H14.3864C14.267 192.403 14.0511 191.852 13.7386 191.347C13.4318 190.835 13.0455 190.389 12.5795 190.009C12.1136 189.628 11.5852 189.332 10.9943 189.122C10.4034 188.912 9.7642 188.807 9.0767 188.807C7.97443 188.807 6.96875 189.094 6.05966 189.668C5.15625 190.241 4.43182 191.085 3.88636 192.199C3.34659 193.307 3.0767 194.665 3.0767 196.273C3.0767 197.892 3.34659 199.256 3.88636 200.364C4.43182 201.472 5.15625 202.312 6.05966 202.886C6.96875 203.455 7.97443 203.739 9.0767 203.739C9.7642 203.739 10.4034 203.634 10.9943 203.423C11.5852 203.213 12.1136 202.92 12.5795 202.545C13.0455 202.165 13.4318 201.719 13.7386 201.207C14.0511 200.696 14.267 200.142 14.3864 199.545H15.9886C15.8466 200.347 15.5795 201.094 15.1875 201.787C14.8011 202.474 14.3068 203.077 13.7045 203.594C13.108 204.111 12.4205 204.514 11.642 204.804C10.8636 205.094 10.0085 205.239 9.0767 205.239C7.6108 205.239 6.30966 204.872 5.1733 204.139C4.03693 203.401 3.14489 202.361 2.49716 201.02C1.85511 199.679 1.53409 198.097 1.53409 196.273C1.53409 194.449 1.85511 192.866 2.49716 191.526C3.14489 190.185 4.03693 189.148 5.1733 188.415C6.30966 187.676 7.6108 187.307 9.0767 187.307C10.0085 187.307 10.8636 187.452 11.642 187.741C12.4205 188.026 13.108 188.429 13.7045 188.952C14.3068 189.469 14.8011 190.071 15.1875 190.759C15.5795 191.446 15.8466 192.193 15.9886 193ZM24.505 205.273C23.3743 205.273 22.3743 204.986 21.505 204.412C20.6413 203.838 19.9652 203.045 19.4766 202.034C18.9879 201.017 18.7436 199.844 18.7436 198.514C18.7436 197.173 18.9879 195.994 19.4766 194.977C19.9652 193.955 20.6413 193.159 21.505 192.591C22.3743 192.017 23.3743 191.73 24.505 191.73C25.6357 191.73 26.6328 192.017 27.4964 192.591C28.3601 193.165 29.0362 193.96 29.5249 194.977C30.0192 195.994 30.2663 197.173 30.2663 198.514C30.2663 199.844 30.022 201.017 29.5334 202.034C29.0447 203.045 28.3658 203.838 27.4964 204.412C26.6328 204.986 25.6357 205.273 24.505 205.273ZM24.505 203.884C25.4141 203.884 26.1839 203.639 26.8146 203.151C27.4453 202.662 27.9226 202.011 28.2464 201.199C28.576 200.386 28.7408 199.491 28.7408 198.514C28.7408 197.537 28.576 196.639 28.2464 195.821C27.9226 195.003 27.4453 194.347 26.8146 193.852C26.1839 193.358 25.4141 193.111 24.505 193.111C23.6016 193.111 22.8317 193.358 22.1953 193.852C21.5646 194.347 21.0845 195.003 20.755 195.821C20.4311 196.639 20.2692 197.537 20.2692 198.514C20.2692 199.491 20.4311 200.386 20.755 201.199C21.0845 202.011 21.5646 202.662 22.1953 203.151C22.826 203.639 23.5959 203.884 24.505 203.884ZM33.5966 205V191.909H35.071V193.92H35.2074C35.4688 193.244 35.9034 192.713 36.5114 192.327C37.125 191.935 37.8608 191.739 38.7188 191.739C39.6222 191.739 40.3636 191.952 40.9432 192.378C41.5284 192.798 41.9659 193.378 42.2557 194.116H42.3665C42.6619 193.389 43.142 192.812 43.8068 192.386C44.4773 191.955 45.2898 191.739 46.2443 191.739C47.4602 191.739 48.4205 192.122 49.125 192.889C49.8295 193.651 50.1818 194.764 50.1818 196.23V205H48.6648V196.23C48.6648 195.196 48.4006 194.42 47.8722 193.903C47.3438 193.386 46.6477 193.128 45.7841 193.128C44.7841 193.128 44.0142 193.435 43.4744 194.048C42.9347 194.662 42.6648 195.44 42.6648 196.384V205H41.1136V196.094C41.1136 195.207 40.8665 194.491 40.3722 193.946C39.8778 193.401 39.1818 193.128 38.2841 193.128C37.6818 193.128 37.1392 193.276 36.6562 193.571C36.179 193.866 35.8011 194.278 35.5227 194.807C35.25 195.33 35.1136 195.932 35.1136 196.614V205H33.5966ZM54.1982 209.909V191.909H55.6726V194.406H55.8516C56.0334 194.014 56.2834 193.614 56.6016 193.205C56.9197 192.79 57.3402 192.44 57.8629 192.156C58.3913 191.872 59.0561 191.73 59.8572 191.73C60.9368 191.73 61.88 192.014 62.6868 192.582C63.4993 193.145 64.13 193.935 64.5788 194.952C65.0334 195.963 65.2607 197.142 65.2607 198.489C65.2607 199.841 65.0334 201.026 64.5788 202.043C64.13 203.06 63.4993 203.852 62.6868 204.42C61.88 204.989 60.9425 205.273 59.8743 205.273C59.0845 205.273 58.4226 205.131 57.8885 204.847C57.3601 204.562 56.9311 204.213 56.6016 203.798C56.2777 203.378 56.0277 202.969 55.8516 202.571H55.7152V209.909H54.1982ZM55.6982 198.463C55.6982 199.52 55.8544 200.457 56.1669 201.276C56.4851 202.088 56.9396 202.727 57.5305 203.193C58.1271 203.653 58.8487 203.884 59.6953 203.884C60.5646 203.884 61.2976 203.645 61.8942 203.168C62.4964 202.685 62.9538 202.034 63.2663 201.216C63.5845 200.398 63.7436 199.48 63.7436 198.463C63.7436 197.457 63.5874 196.551 63.2749 195.744C62.968 194.937 62.5135 194.298 61.9112 193.827C61.3089 193.349 60.5703 193.111 59.6953 193.111C58.843 193.111 58.1186 193.341 57.522 193.801C56.9254 194.256 56.4709 194.886 56.1584 195.693C55.8516 196.494 55.6982 197.418 55.6982 198.463ZM72.245 205.298C71.4553 205.298 70.7337 205.145 70.0803 204.838C69.4268 204.526 68.907 204.077 68.5206 203.491C68.1342 202.901 67.9411 202.185 67.9411 201.344C67.9411 200.696 68.0632 200.151 68.3075 199.707C68.5518 199.264 68.8984 198.901 69.3473 198.616C69.7962 198.332 70.3274 198.108 70.9411 197.943C71.5547 197.778 72.2308 197.651 72.9695 197.56C73.7024 197.469 74.3217 197.389 74.8274 197.321C75.3388 197.253 75.728 197.145 75.995 196.997C76.2621 196.849 76.3956 196.611 76.3956 196.281V195.974C76.3956 195.082 76.1286 194.381 75.5945 193.869C75.0661 193.352 74.3047 193.094 73.3104 193.094C72.3672 193.094 71.5973 193.301 71.0007 193.716C70.4098 194.131 69.995 194.619 69.7564 195.182L68.3161 194.662C68.6115 193.946 69.0206 193.375 69.5433 192.949C70.0661 192.517 70.6513 192.207 71.299 192.02C71.9467 191.827 72.603 191.73 73.2678 191.73C73.7678 191.73 74.2876 191.795 74.8274 191.926C75.3729 192.057 75.8786 192.284 76.3445 192.608C76.8104 192.926 77.1882 193.372 77.478 193.946C77.7678 194.514 77.9126 195.236 77.9126 196.111V205H76.3956V202.929H76.3018C76.12 203.315 75.8501 203.69 75.4922 204.054C75.1342 204.418 74.6854 204.716 74.1456 204.949C73.6058 205.182 72.9723 205.298 72.245 205.298ZM72.4496 203.909C73.2564 203.909 73.9553 203.73 74.5462 203.372C75.1371 203.014 75.5916 202.54 75.9098 201.949C76.2337 201.352 76.3956 200.696 76.3956 199.98V198.088C76.282 198.196 76.0916 198.293 75.8246 198.378C75.5632 198.463 75.2592 198.54 74.9126 198.608C74.5717 198.67 74.2308 198.724 73.8899 198.77C73.549 198.815 73.2422 198.855 72.9695 198.889C72.2308 198.98 71.6001 199.122 71.0774 199.315C70.5547 199.509 70.1541 199.776 69.8757 200.116C69.5973 200.452 69.4581 200.884 69.4581 201.412C69.4581 202.207 69.7422 202.824 70.3104 203.261C70.8786 203.693 71.5916 203.909 72.4496 203.909ZM83.4652 196.818V205H81.9482V191.909H83.4226V193.963H83.5589C83.8658 193.293 84.343 192.756 84.9908 192.352C85.6442 191.943 86.451 191.739 87.4112 191.739C88.2919 191.739 89.0646 191.923 89.7294 192.293C90.3999 192.656 90.9197 193.193 91.2891 193.903C91.6641 194.614 91.8516 195.486 91.8516 196.52V205H90.3345V196.614C90.3345 195.54 90.0334 194.69 89.4311 194.065C88.8345 193.44 88.0334 193.128 87.0277 193.128C86.3402 193.128 85.7294 193.276 85.1953 193.571C84.6612 193.866 84.2379 194.293 83.9254 194.849C83.6186 195.401 83.4652 196.057 83.4652 196.818ZM96.4347 209.909C96.1335 209.909 95.8523 209.881 95.5909 209.824C95.3295 209.767 95.1222 209.705 94.9688 209.636L95.3778 208.298C95.8949 208.457 96.3551 208.514 96.7585 208.469C97.1619 208.429 97.5199 208.247 97.8324 207.923C98.1449 207.605 98.4233 207.116 98.6676 206.457L99.1449 205.128L94.3295 191.909H95.9744L99.8608 202.997H99.9801L103.866 191.909H105.511L99.9716 207.071C99.7386 207.702 99.4517 208.227 99.1108 208.648C98.7699 209.074 98.375 209.389 97.9261 209.594C97.483 209.804 96.9858 209.909 96.4347 209.909ZM115.246 205V191.909H116.772V205H115.246ZM116.022 189.659C115.71 189.659 115.442 189.554 115.221 189.344C114.999 189.128 114.888 188.869 114.888 188.568C114.888 188.267 114.999 188.011 115.221 187.801C115.442 187.585 115.71 187.477 116.022 187.477C116.335 187.477 116.602 187.585 116.823 187.801C117.045 188.011 117.156 188.267 117.156 188.568C117.156 188.869 117.045 189.128 116.823 189.344C116.602 189.554 116.335 189.659 116.022 189.659ZM122.301 196.818V205H120.784V191.909H122.259V193.963H122.395C122.702 193.293 123.179 192.756 123.827 192.352C124.48 191.943 125.287 191.739 126.247 191.739C127.128 191.739 127.901 191.923 128.565 192.293C129.236 192.656 129.756 193.193 130.125 193.903C130.5 194.614 130.688 195.486 130.688 196.52V205H129.17V196.614C129.17 195.54 128.869 194.69 128.267 194.065C127.67 193.44 126.869 193.128 125.864 193.128C125.176 193.128 124.565 193.276 124.031 193.571C123.497 193.866 123.074 194.293 122.761 194.849C122.455 195.401 122.301 196.057 122.301 196.818ZM139.839 191.909V193.23H133.592V191.909H139.839ZM135.543 188.773H137.069V201.582C137.069 202.128 137.163 202.557 137.35 202.869C137.538 203.176 137.782 203.395 138.083 203.526C138.384 203.651 138.705 203.713 139.046 203.713C139.245 203.713 139.415 203.702 139.558 203.679C139.7 203.651 139.825 203.622 139.933 203.594L140.256 204.966C140.109 205.023 139.927 205.074 139.711 205.119C139.495 205.17 139.228 205.196 138.91 205.196C138.353 205.196 137.816 205.074 137.299 204.83C136.788 204.585 136.367 204.222 136.038 203.739C135.708 203.256 135.543 202.656 135.543 201.94V188.773ZM143.284 205V191.909H144.759V193.92H144.869C145.131 193.261 145.585 192.73 146.233 192.327C146.886 191.918 147.625 191.713 148.449 191.713C148.574 191.713 148.713 191.716 148.866 191.722C149.02 191.727 149.148 191.733 149.25 191.739V193.281C149.182 193.27 149.063 193.253 148.892 193.23C148.722 193.207 148.537 193.196 148.338 193.196C147.656 193.196 147.048 193.341 146.514 193.631C145.986 193.915 145.568 194.31 145.261 194.815C144.955 195.321 144.801 195.898 144.801 196.545V205H143.284ZM156.528 205.273C155.398 205.273 154.398 204.986 153.528 204.412C152.665 203.838 151.989 203.045 151.5 202.034C151.011 201.017 150.767 199.844 150.767 198.514C150.767 197.173 151.011 195.994 151.5 194.977C151.989 193.955 152.665 193.159 153.528 192.591C154.398 192.017 155.398 191.73 156.528 191.73C157.659 191.73 158.656 192.017 159.52 192.591C160.384 193.165 161.06 193.96 161.548 194.977C162.043 195.994 162.29 197.173 162.29 198.514C162.29 199.844 162.045 201.017 161.557 202.034C161.068 203.045 160.389 203.838 159.52 204.412C158.656 204.986 157.659 205.273 156.528 205.273ZM156.528 203.884C157.438 203.884 158.207 203.639 158.838 203.151C159.469 202.662 159.946 202.011 160.27 201.199C160.599 200.386 160.764 199.491 160.764 198.514C160.764 197.537 160.599 196.639 160.27 195.821C159.946 195.003 159.469 194.347 158.838 193.852C158.207 193.358 157.438 193.111 156.528 193.111C155.625 193.111 154.855 193.358 154.219 193.852C153.588 194.347 153.108 195.003 152.778 195.821C152.455 196.639 152.293 197.537 152.293 198.514C152.293 199.491 152.455 200.386 152.778 201.199C153.108 202.011 153.588 202.662 154.219 203.151C154.849 203.639 155.619 203.884 156.528 203.884ZM170.333 205.273C169.259 205.273 168.319 204.989 167.512 204.42C166.705 203.852 166.075 203.06 165.62 202.043C165.171 201.026 164.947 199.841 164.947 198.489C164.947 197.142 165.171 195.963 165.62 194.952C166.075 193.935 166.708 193.145 167.521 192.582C168.333 192.014 169.279 191.73 170.359 191.73C171.154 191.73 171.816 191.872 172.344 192.156C172.873 192.435 173.296 192.781 173.614 193.196C173.933 193.611 174.18 194.014 174.356 194.406H174.492V187.545H176.018V205H174.535V202.571H174.356C174.18 202.969 173.93 203.378 173.606 203.798C173.282 204.213 172.853 204.562 172.319 204.847C171.79 205.131 171.129 205.273 170.333 205.273ZM170.512 203.884C171.359 203.884 172.08 203.653 172.677 203.193C173.273 202.727 173.728 202.088 174.04 201.276C174.359 200.457 174.518 199.52 174.518 198.463C174.518 197.418 174.362 196.494 174.049 195.693C173.737 194.886 173.282 194.256 172.685 193.801C172.089 193.341 171.364 193.111 170.512 193.111C169.637 193.111 168.898 193.349 168.296 193.827C167.7 194.298 167.245 194.937 166.933 195.744C166.626 196.551 166.472 197.457 166.472 198.463C166.472 199.48 166.629 200.398 166.941 201.216C167.254 202.034 167.708 202.685 168.305 203.168C168.907 203.645 169.643 203.884 170.512 203.884ZM188.657 199.997V191.909H190.174V205H188.657V202.827H188.538C188.231 203.497 187.745 204.057 187.08 204.506C186.415 204.949 185.603 205.17 184.643 205.17C183.808 205.17 183.066 204.989 182.418 204.625C181.771 204.256 181.262 203.716 180.893 203.006C180.523 202.295 180.339 201.423 180.339 200.389V191.909H181.856V200.295C181.856 201.318 182.157 202.142 182.759 202.767C183.362 203.386 184.134 203.696 185.077 203.696C185.668 203.696 186.237 203.554 186.782 203.27C187.327 202.986 187.776 202.571 188.129 202.026C188.481 201.474 188.657 200.798 188.657 199.997ZM199.304 205.273C198.134 205.273 197.114 204.98 196.244 204.395C195.381 203.81 194.71 203.009 194.233 201.991C193.756 200.974 193.517 199.815 193.517 198.514C193.517 197.202 193.759 196.034 194.241 195.011C194.73 193.989 195.406 193.187 196.27 192.608C197.134 192.023 198.136 191.73 199.278 191.73C200.153 191.73 200.946 191.901 201.656 192.241C202.366 192.577 202.952 193.051 203.412 193.665C203.878 194.273 204.17 194.983 204.29 195.795H202.756C202.597 195.057 202.213 194.426 201.605 193.903C201.003 193.375 200.236 193.111 199.304 193.111C198.469 193.111 197.73 193.338 197.088 193.793C196.446 194.241 195.943 194.869 195.58 195.676C195.222 196.477 195.043 197.406 195.043 198.463C195.043 199.526 195.219 200.466 195.571 201.284C195.923 202.097 196.418 202.733 197.054 203.193C197.696 203.653 198.446 203.884 199.304 203.884C199.884 203.884 200.412 203.776 200.889 203.56C201.372 203.338 201.776 203.026 202.099 202.622C202.429 202.219 202.651 201.739 202.764 201.182H204.298C204.185 201.972 203.903 202.676 203.455 203.295C203.011 203.909 202.435 204.392 201.724 204.744C201.02 205.097 200.213 205.273 199.304 205.273ZM212.706 191.909V193.23H206.459V191.909H212.706ZM208.411 188.773H209.936V201.582C209.936 202.128 210.03 202.557 210.217 202.869C210.405 203.176 210.649 203.395 210.95 203.526C211.251 203.651 211.572 203.713 211.913 203.713C212.112 203.713 212.283 203.702 212.425 203.679C212.567 203.651 212.692 203.622 212.8 203.594L213.124 204.966C212.976 205.023 212.794 205.074 212.578 205.119C212.362 205.17 212.095 205.196 211.777 205.196C211.22 205.196 210.683 205.074 210.166 204.83C209.655 204.585 209.234 204.222 208.905 203.739C208.575 203.256 208.411 202.656 208.411 201.94V188.773ZM216.168 205V191.909H217.694V205H216.168ZM216.944 189.659C216.631 189.659 216.364 189.554 216.143 189.344C215.921 189.128 215.81 188.869 215.81 188.568C215.81 188.267 215.921 188.011 216.143 187.801C216.364 187.585 216.631 187.477 216.944 187.477C217.256 187.477 217.523 187.585 217.745 187.801C217.967 188.011 218.077 188.267 218.077 188.568C218.077 188.869 217.967 189.128 217.745 189.344C217.523 189.554 217.256 189.659 216.944 189.659ZM226.794 205.273C225.663 205.273 224.663 204.986 223.794 204.412C222.93 203.838 222.254 203.045 221.766 202.034C221.277 201.017 221.033 199.844 221.033 198.514C221.033 197.173 221.277 195.994 221.766 194.977C222.254 193.955 222.93 193.159 223.794 192.591C224.663 192.017 225.663 191.73 226.794 191.73C227.925 191.73 228.922 192.017 229.786 192.591C230.649 193.165 231.325 193.96 231.814 194.977C232.308 195.994 232.555 197.173 232.555 198.514C232.555 199.844 232.311 201.017 231.822 202.034C231.334 203.045 230.655 203.838 229.786 204.412C228.922 204.986 227.925 205.273 226.794 205.273ZM226.794 203.884C227.703 203.884 228.473 203.639 229.104 203.151C229.734 202.662 230.212 202.011 230.536 201.199C230.865 200.386 231.03 199.491 231.03 198.514C231.03 197.537 230.865 196.639 230.536 195.821C230.212 195.003 229.734 194.347 229.104 193.852C228.473 193.358 227.703 193.111 226.794 193.111C225.891 193.111 225.121 193.358 224.484 193.852C223.854 194.347 223.374 195.003 223.044 195.821C222.72 196.639 222.558 197.537 222.558 198.514C222.558 199.491 222.72 200.386 223.044 201.199C223.374 202.011 223.854 202.662 224.484 203.151C225.115 203.639 225.885 203.884 226.794 203.884ZM237.403 196.818V205H235.886V191.909H237.36V193.963H237.496C237.803 193.293 238.281 192.756 238.928 192.352C239.582 191.943 240.388 191.739 241.349 191.739C242.229 191.739 243.002 191.923 243.667 192.293C244.337 192.656 244.857 193.193 245.227 193.903C245.602 194.614 245.789 195.486 245.789 196.52V205H244.272V196.614C244.272 195.54 243.971 194.69 243.369 194.065C242.772 193.44 241.971 193.128 240.965 193.128C240.278 193.128 239.667 193.276 239.133 193.571C238.599 193.866 238.175 194.293 237.863 194.849C237.556 195.401 237.403 196.057 237.403 196.818Z" fill="black"/>
<path d="M415.628 196.273C415.628 198.091 415.304 199.673 414.656 201.02C414.009 202.361 413.116 203.401 411.98 204.139C410.849 204.872 409.548 205.239 408.077 205.239C406.605 205.239 405.301 204.872 404.165 204.139C403.034 203.401 402.145 202.361 401.497 201.02C400.855 199.673 400.534 198.091 400.534 196.273C400.534 194.455 400.855 192.875 401.497 191.534C402.145 190.187 403.037 189.148 404.173 188.415C405.31 187.676 406.611 187.307 408.077 187.307C409.548 187.307 410.849 187.676 411.98 188.415C413.116 189.148 414.009 190.187 414.656 191.534C415.304 192.875 415.628 194.455 415.628 196.273ZM414.077 196.273C414.077 194.71 413.815 193.372 413.293 192.259C412.77 191.139 412.057 190.284 411.153 189.693C410.25 189.102 409.224 188.807 408.077 188.807C406.935 188.807 405.912 189.102 405.009 189.693C404.105 190.284 403.389 191.136 402.861 192.25C402.338 193.364 402.077 194.705 402.077 196.273C402.077 197.835 402.338 199.173 402.861 200.287C403.384 201.401 404.097 202.256 405 202.852C405.903 203.443 406.929 203.739 408.077 203.739C409.224 203.739 410.25 203.443 411.153 202.852C412.063 202.261 412.778 201.409 413.301 200.295C413.824 199.176 414.082 197.835 414.077 196.273ZM427.485 199.997V191.909H429.002V205H427.485V202.827H427.366C427.059 203.497 426.573 204.057 425.908 204.506C425.244 204.949 424.431 205.17 423.471 205.17C422.636 205.17 421.894 204.989 421.246 204.625C420.599 204.256 420.09 203.716 419.721 203.006C419.352 202.295 419.167 201.423 419.167 200.389V191.909H420.684V200.295C420.684 201.318 420.985 202.142 421.587 202.767C422.19 203.386 422.962 203.696 423.906 203.696C424.496 203.696 425.065 203.554 425.61 203.27C426.156 202.986 426.604 202.571 426.957 202.026C427.309 201.474 427.485 200.798 427.485 199.997ZM433.018 205V191.909H434.493V193.92H434.604C434.865 193.261 435.32 192.73 435.967 192.327C436.621 191.918 437.359 191.713 438.183 191.713C438.308 191.713 438.447 191.716 438.601 191.722C438.754 191.727 438.882 191.733 438.984 191.739V193.281C438.916 193.27 438.797 193.253 438.626 193.23C438.456 193.207 438.271 193.196 438.072 193.196C437.391 193.196 436.783 193.341 436.249 193.631C435.72 193.915 435.303 194.31 434.996 194.815C434.689 195.321 434.536 195.898 434.536 196.545V205H433.018ZM453.479 191.909V193.23H447.232V191.909H453.479ZM449.184 188.773H450.71V201.582C450.71 202.128 450.803 202.557 450.991 202.869C451.178 203.176 451.423 203.395 451.724 203.526C452.025 203.651 452.346 203.713 452.687 203.713C452.886 203.713 453.056 203.702 453.198 203.679C453.34 203.651 453.465 203.622 453.573 203.594L453.897 204.966C453.749 205.023 453.567 205.074 453.352 205.119C453.136 205.17 452.869 205.196 452.55 205.196C451.994 205.196 451.457 205.074 450.94 204.83C450.428 204.585 450.008 204.222 449.678 203.739C449.349 203.256 449.184 202.656 449.184 201.94V188.773ZM462.077 205.273C460.855 205.273 459.798 204.989 458.906 204.42C458.014 203.847 457.324 203.054 456.835 202.043C456.352 201.026 456.111 199.855 456.111 198.531C456.111 197.213 456.352 196.043 456.835 195.02C457.324 193.991 457.997 193.187 458.855 192.608C459.719 192.023 460.716 191.73 461.847 191.73C462.557 191.73 463.241 191.861 463.901 192.122C464.56 192.378 465.151 192.773 465.673 193.307C466.202 193.835 466.619 194.503 466.926 195.31C467.233 196.111 467.386 197.06 467.386 198.156V198.906H457.159V197.568H465.835C465.835 196.727 465.665 195.972 465.324 195.301C464.989 194.625 464.52 194.091 463.918 193.699C463.321 193.307 462.631 193.111 461.847 193.111C461.017 193.111 460.287 193.332 459.656 193.776C459.026 194.219 458.531 194.804 458.173 195.531C457.821 196.259 457.642 197.054 457.636 197.918V198.719C457.636 199.759 457.815 200.668 458.173 201.446C458.537 202.219 459.051 202.818 459.716 203.244C460.381 203.67 461.168 203.884 462.077 203.884C462.696 203.884 463.239 203.787 463.705 203.594C464.176 203.401 464.571 203.142 464.889 202.818C465.213 202.489 465.457 202.128 465.622 201.736L467.062 202.205C466.864 202.756 466.537 203.264 466.082 203.73C465.634 204.196 465.071 204.571 464.395 204.855C463.724 205.134 462.952 205.273 462.077 205.273ZM474.386 205.298C473.596 205.298 472.874 205.145 472.221 204.838C471.567 204.526 471.048 204.077 470.661 203.491C470.275 202.901 470.082 202.185 470.082 201.344C470.082 200.696 470.204 200.151 470.448 199.707C470.692 199.264 471.039 198.901 471.488 198.616C471.937 198.332 472.468 198.108 473.082 197.943C473.695 197.778 474.371 197.651 475.11 197.56C475.843 197.469 476.462 197.389 476.968 197.321C477.479 197.253 477.869 197.145 478.136 196.997C478.403 196.849 478.536 196.611 478.536 196.281V195.974C478.536 195.082 478.269 194.381 477.735 193.869C477.207 193.352 476.445 193.094 475.451 193.094C474.508 193.094 473.738 193.301 473.141 193.716C472.55 194.131 472.136 194.619 471.897 195.182L470.457 194.662C470.752 193.946 471.161 193.375 471.684 192.949C472.207 192.517 472.792 192.207 473.44 192.02C474.087 191.827 474.744 191.73 475.408 191.73C475.908 191.73 476.428 191.795 476.968 191.926C477.513 192.057 478.019 192.284 478.485 192.608C478.951 192.926 479.329 193.372 479.619 193.946C479.908 194.514 480.053 195.236 480.053 196.111V205H478.536V202.929H478.442C478.261 203.315 477.991 203.69 477.633 204.054C477.275 204.418 476.826 204.716 476.286 204.949C475.746 205.182 475.113 205.298 474.386 205.298ZM474.59 203.909C475.397 203.909 476.096 203.73 476.687 203.372C477.278 203.014 477.732 202.54 478.05 201.949C478.374 201.352 478.536 200.696 478.536 199.98V198.088C478.423 198.196 478.232 198.293 477.965 198.378C477.704 198.463 477.4 198.54 477.053 198.608C476.712 198.67 476.371 198.724 476.031 198.77C475.69 198.815 475.383 198.855 475.11 198.889C474.371 198.98 473.741 199.122 473.218 199.315C472.695 199.509 472.295 199.776 472.016 200.116C471.738 200.452 471.599 200.884 471.599 201.412C471.599 202.207 471.883 202.824 472.451 203.261C473.019 203.693 473.732 203.909 474.59 203.909ZM484.089 205V191.909H485.563V193.92H485.7C485.961 193.244 486.396 192.713 487.004 192.327C487.617 191.935 488.353 191.739 489.211 191.739C490.114 191.739 490.856 191.952 491.435 192.378C492.021 192.798 492.458 193.378 492.748 194.116H492.859C493.154 193.389 493.634 192.812 494.299 192.386C494.969 191.955 495.782 191.739 496.737 191.739C497.952 191.739 498.913 192.122 499.617 192.889C500.322 193.651 500.674 194.764 500.674 196.23V205H499.157V196.23C499.157 195.196 498.893 194.42 498.364 193.903C497.836 193.386 497.14 193.128 496.276 193.128C495.276 193.128 494.506 193.435 493.967 194.048C493.427 194.662 493.157 195.44 493.157 196.384V205H491.606V196.094C491.606 195.207 491.359 194.491 490.864 193.946C490.37 193.401 489.674 193.128 488.776 193.128C488.174 193.128 487.631 193.276 487.148 193.571C486.671 193.866 486.293 194.278 486.015 194.807C485.742 195.33 485.606 195.932 485.606 196.614V205H484.089Z" fill="black"/>
<path d="M676.318 205V187.545H681.952C683.19 187.545 684.224 187.784 685.054 188.261C685.889 188.733 686.517 189.375 686.938 190.188C687.364 191 687.577 191.915 687.577 192.932C687.577 193.949 687.366 194.866 686.946 195.685C686.526 196.497 685.901 197.142 685.071 197.619C684.241 198.091 683.21 198.327 681.977 198.327H677.545V196.895H681.935C682.849 196.895 683.608 196.724 684.21 196.384C684.813 196.037 685.261 195.565 685.557 194.969C685.858 194.372 686.009 193.693 686.009 192.932C686.009 192.17 685.858 191.491 685.557 190.895C685.261 190.298 684.81 189.83 684.202 189.489C683.599 189.148 682.835 188.977 681.909 188.977H677.912V205H676.318ZM691.003 205V191.909H692.477V193.92H692.588C692.849 193.261 693.304 192.73 693.952 192.327C694.605 191.918 695.344 191.713 696.168 191.713C696.293 191.713 696.432 191.716 696.585 191.722C696.739 191.727 696.866 191.733 696.969 191.739V193.281C696.901 193.27 696.781 193.253 696.611 193.23C696.44 193.207 696.256 193.196 696.057 193.196C695.375 193.196 694.767 193.341 694.233 193.631C693.705 193.915 693.287 194.31 692.98 194.815C692.673 195.321 692.52 195.898 692.52 196.545V205H691.003ZM704.247 205.273C703.116 205.273 702.116 204.986 701.247 204.412C700.384 203.838 699.707 203.045 699.219 202.034C698.73 201.017 698.486 199.844 698.486 198.514C698.486 197.173 698.73 195.994 699.219 194.977C699.707 193.955 700.384 193.159 701.247 192.591C702.116 192.017 703.116 191.73 704.247 191.73C705.378 191.73 706.375 192.017 707.239 192.591C708.102 193.165 708.778 193.96 709.267 194.977C709.761 195.994 710.009 197.173 710.009 198.514C710.009 199.844 709.764 201.017 709.276 202.034C708.787 203.045 708.108 203.838 707.239 204.412C706.375 204.986 705.378 205.273 704.247 205.273ZM704.247 203.884C705.156 203.884 705.926 203.639 706.557 203.151C707.188 202.662 707.665 202.011 707.989 201.199C708.318 200.386 708.483 199.491 708.483 198.514C708.483 197.537 708.318 196.639 707.989 195.821C707.665 195.003 707.188 194.347 706.557 193.852C705.926 193.358 705.156 193.111 704.247 193.111C703.344 193.111 702.574 193.358 701.938 193.852C701.307 194.347 700.827 195.003 700.497 195.821C700.173 196.639 700.011 197.537 700.011 198.514C700.011 199.491 700.173 200.386 700.497 201.199C700.827 202.011 701.307 202.662 701.938 203.151C702.568 203.639 703.338 203.884 704.247 203.884ZM713.654 205V187.545H715.18V194.406H715.316C715.487 194.014 715.731 193.611 716.049 193.196C716.373 192.781 716.796 192.435 717.319 192.156C717.847 191.872 718.512 191.73 719.313 191.73C720.387 191.73 721.33 192.014 722.143 192.582C722.955 193.145 723.589 193.935 724.043 194.952C724.498 195.963 724.725 197.142 724.725 198.489C724.725 199.841 724.498 201.026 724.043 202.043C723.594 203.06 722.964 203.852 722.151 204.42C721.344 204.989 720.407 205.273 719.339 205.273C718.543 205.273 717.879 205.131 717.344 204.847C716.816 204.562 716.39 204.213 716.066 203.798C715.742 203.378 715.492 202.969 715.316 202.571H715.129V205H713.654ZM715.154 198.463C715.154 199.52 715.31 200.457 715.623 201.276C715.941 202.088 716.396 202.727 716.987 203.193C717.583 203.653 718.305 203.884 719.151 203.884C720.021 203.884 720.756 203.645 721.359 203.168C721.961 202.685 722.418 202.034 722.731 201.216C723.043 200.398 723.2 199.48 723.2 198.463C723.2 197.457 723.043 196.551 722.731 195.744C722.424 194.937 721.969 194.298 721.367 193.827C720.765 193.349 720.026 193.111 719.151 193.111C718.299 193.111 717.575 193.341 716.978 193.801C716.387 194.256 715.935 194.886 715.623 195.693C715.31 196.494 715.154 197.418 715.154 198.463ZM729.575 187.545V205H728.058V187.545H729.575ZM738.881 205.273C737.66 205.273 736.603 204.989 735.711 204.42C734.819 203.847 734.129 203.054 733.64 202.043C733.157 201.026 732.915 199.855 732.915 198.531C732.915 197.213 733.157 196.043 733.64 195.02C734.129 193.991 734.802 193.187 735.66 192.608C736.523 192.023 737.521 191.73 738.651 191.73C739.362 191.73 740.046 191.861 740.705 192.122C741.364 192.378 741.955 192.773 742.478 193.307C743.006 193.835 743.424 194.503 743.731 195.31C744.038 196.111 744.191 197.06 744.191 198.156V198.906H733.964V197.568H742.64C742.64 196.727 742.469 195.972 742.129 195.301C741.793 194.625 741.325 194.091 740.722 193.699C740.126 193.307 739.435 193.111 738.651 193.111C737.822 193.111 737.092 193.332 736.461 193.776C735.83 194.219 735.336 194.804 734.978 195.531C734.626 196.259 734.447 197.054 734.441 197.918V198.719C734.441 199.759 734.62 200.668 734.978 201.446C735.342 202.219 735.856 202.818 736.521 203.244C737.185 203.67 737.972 203.884 738.881 203.884C739.501 203.884 740.043 203.787 740.509 203.594C740.981 203.401 741.376 203.142 741.694 202.818C742.018 202.489 742.262 202.128 742.427 201.736L743.867 202.205C743.668 202.756 743.342 203.264 742.887 203.73C742.438 204.196 741.876 204.571 741.2 204.855C740.529 205.134 739.756 205.273 738.881 205.273ZM747.534 205V191.909H749.009V193.92H749.145C749.406 193.244 749.841 192.713 750.449 192.327C751.063 191.935 751.798 191.739 752.656 191.739C753.56 191.739 754.301 191.952 754.881 192.378C755.466 192.798 755.903 193.378 756.193 194.116H756.304C756.599 193.389 757.08 192.812 757.744 192.386C758.415 191.955 759.227 191.739 760.182 191.739C761.398 191.739 762.358 192.122 763.062 192.889C763.767 193.651 764.119 194.764 764.119 196.23V205H762.602V196.23C762.602 195.196 762.338 194.42 761.81 193.903C761.281 193.386 760.585 193.128 759.722 193.128C758.722 193.128 757.952 193.435 757.412 194.048C756.872 194.662 756.602 195.44 756.602 196.384V205H755.051V196.094C755.051 195.207 754.804 194.491 754.31 193.946C753.815 193.401 753.119 193.128 752.222 193.128C751.619 193.128 751.077 193.276 750.594 193.571C750.116 193.866 749.739 194.278 749.46 194.807C749.188 195.33 749.051 195.932 749.051 196.614V205H747.534ZM776.931 194.781L775.542 195.173C775.406 194.781 775.212 194.426 774.962 194.108C774.712 193.79 774.386 193.537 773.982 193.349C773.585 193.162 773.09 193.068 772.499 193.068C771.613 193.068 770.886 193.278 770.317 193.699C769.749 194.119 769.465 194.662 769.465 195.327C769.465 195.889 769.658 196.347 770.045 196.699C770.437 197.045 771.039 197.321 771.852 197.526L773.829 198.011C774.925 198.278 775.746 198.702 776.292 199.281C776.843 199.861 777.119 200.588 777.119 201.463C777.119 202.202 776.914 202.858 776.505 203.432C776.096 204.006 775.525 204.457 774.792 204.787C774.065 205.111 773.221 205.273 772.261 205.273C770.982 205.273 769.928 204.986 769.099 204.412C768.269 203.832 767.738 202.997 767.505 201.906L768.962 201.548C769.15 202.327 769.516 202.915 770.062 203.312C770.613 203.71 771.337 203.909 772.235 203.909C773.241 203.909 774.045 203.685 774.647 203.236C775.249 202.781 775.55 202.213 775.55 201.531C775.55 201.003 775.374 200.56 775.022 200.202C774.67 199.838 774.136 199.571 773.42 199.401L771.281 198.889C770.144 198.616 769.303 198.185 768.758 197.594C768.212 197.003 767.94 196.27 767.94 195.395C767.94 194.673 768.136 194.04 768.528 193.494C768.92 192.943 769.46 192.511 770.147 192.199C770.835 191.886 771.619 191.73 772.499 191.73C773.698 191.73 774.656 192.003 775.371 192.548C776.093 193.088 776.613 193.832 776.931 194.781ZM791.861 205.239C790.787 205.239 789.849 205.031 789.048 204.616C788.247 204.196 787.625 203.625 787.182 202.903C786.739 202.182 786.517 201.366 786.517 200.457C786.517 199.798 786.651 199.205 786.918 198.676C787.19 198.142 787.582 197.636 788.094 197.159C788.605 196.676 789.224 196.176 789.952 195.659L792.483 193.776C793.085 193.344 793.543 192.92 793.855 192.506C794.173 192.085 794.332 191.571 794.332 190.963C794.332 190.378 794.111 189.855 793.668 189.395C793.23 188.929 792.662 188.696 791.963 188.696C791.474 188.696 791.037 188.818 790.651 189.062C790.27 189.307 789.966 189.625 789.739 190.017C789.517 190.403 789.406 190.81 789.406 191.236C789.406 191.634 789.509 192.034 789.713 192.438C789.918 192.835 790.193 193.256 790.54 193.699C790.886 194.136 791.273 194.619 791.699 195.148L799.676 205H797.835L790.881 196.469C790.295 195.753 789.776 195.114 789.321 194.551C788.866 193.983 788.509 193.438 788.247 192.915C787.986 192.386 787.855 191.821 787.855 191.219C787.855 190.474 788.028 189.812 788.375 189.233C788.722 188.648 789.199 188.187 789.807 187.852C790.42 187.517 791.122 187.349 791.912 187.349C792.719 187.349 793.418 187.514 794.009 187.844C794.605 188.173 795.065 188.611 795.389 189.156C795.719 189.702 795.884 190.304 795.884 190.963C795.884 191.753 795.679 192.452 795.27 193.06C794.866 193.668 794.278 194.264 793.506 194.849L790.335 197.219C789.466 197.872 788.869 198.477 788.545 199.034C788.222 199.591 788.06 200.065 788.06 200.457C788.06 201.071 788.219 201.636 788.537 202.153C788.855 202.67 789.295 203.085 789.858 203.398C790.426 203.71 791.077 203.869 791.81 203.875C792.537 203.869 793.222 203.724 793.864 203.44C794.506 203.151 795.08 202.739 795.585 202.205C796.097 201.67 796.506 201.031 796.812 200.287C797.125 199.543 797.307 198.713 797.358 197.798L798.832 197.815C798.81 198.753 798.682 199.548 798.449 200.202C798.222 200.849 797.96 201.384 797.665 201.804C797.369 202.224 797.111 202.562 796.889 202.818C796.827 202.903 796.764 202.989 796.702 203.074C796.639 203.159 796.574 203.244 796.506 203.33C795.938 203.955 795.23 204.429 794.384 204.753C793.543 205.077 792.702 205.239 791.861 205.239ZM817.642 194.781L816.253 195.173C816.116 194.781 815.923 194.426 815.673 194.108C815.423 193.79 815.097 193.537 814.693 193.349C814.295 193.162 813.801 193.068 813.21 193.068C812.324 193.068 811.597 193.278 811.028 193.699C810.46 194.119 810.176 194.662 810.176 195.327C810.176 195.889 810.369 196.347 810.756 196.699C811.148 197.045 811.75 197.321 812.562 197.526L814.54 198.011C815.636 198.278 816.457 198.702 817.003 199.281C817.554 199.861 817.83 200.588 817.83 201.463C817.83 202.202 817.625 202.858 817.216 203.432C816.807 204.006 816.236 204.457 815.503 204.787C814.776 205.111 813.932 205.273 812.972 205.273C811.693 205.273 810.639 204.986 809.81 204.412C808.98 203.832 808.449 202.997 808.216 201.906L809.673 201.548C809.861 202.327 810.227 202.915 810.773 203.312C811.324 203.71 812.048 203.909 812.946 203.909C813.952 203.909 814.756 203.685 815.358 203.236C815.96 202.781 816.261 202.213 816.261 201.531C816.261 201.003 816.085 200.56 815.733 200.202C815.381 199.838 814.847 199.571 814.131 199.401L811.991 198.889C810.855 198.616 810.014 198.185 809.469 197.594C808.923 197.003 808.651 196.27 808.651 195.395C808.651 194.673 808.847 194.04 809.239 193.494C809.631 192.943 810.17 192.511 810.858 192.199C811.545 191.886 812.33 191.73 813.21 191.73C814.409 191.73 815.366 192.003 816.082 192.548C816.804 193.088 817.324 193.832 817.642 194.781ZM826.239 205.273C825.109 205.273 824.109 204.986 823.239 204.412C822.376 203.838 821.7 203.045 821.211 202.034C820.722 201.017 820.478 199.844 820.478 198.514C820.478 197.173 820.722 195.994 821.211 194.977C821.7 193.955 822.376 193.159 823.239 192.591C824.109 192.017 825.109 191.73 826.239 191.73C827.37 191.73 828.367 192.017 829.231 192.591C830.094 193.165 830.771 193.96 831.259 194.977C831.754 195.994 832.001 197.173 832.001 198.514C832.001 199.844 831.756 201.017 831.268 202.034C830.779 203.045 830.1 203.838 829.231 204.412C828.367 204.986 827.37 205.273 826.239 205.273ZM826.239 203.884C827.148 203.884 827.918 203.639 828.549 203.151C829.18 202.662 829.657 202.011 829.981 201.199C830.31 200.386 830.475 199.491 830.475 198.514C830.475 197.537 830.31 196.639 829.981 195.821C829.657 195.003 829.18 194.347 828.549 193.852C827.918 193.358 827.148 193.111 826.239 193.111C825.336 193.111 824.566 193.358 823.93 193.852C823.299 194.347 822.819 195.003 822.489 195.821C822.165 196.639 822.004 197.537 822.004 198.514C822.004 199.491 822.165 200.386 822.489 201.199C822.819 202.011 823.299 202.662 823.93 203.151C824.56 203.639 825.33 203.884 826.239 203.884ZM836.848 187.545V205H835.331V187.545H836.848ZM849.18 199.997V191.909H850.697V205H849.18V202.827H849.061C848.754 203.497 848.268 204.057 847.604 204.506C846.939 204.949 846.126 205.17 845.166 205.17C844.331 205.17 843.589 204.989 842.942 204.625C842.294 204.256 841.786 203.716 841.416 203.006C841.047 202.295 840.862 201.423 840.862 200.389V191.909H842.379V200.295C842.379 201.318 842.68 202.142 843.283 202.767C843.885 203.386 844.658 203.696 845.601 203.696C846.192 203.696 846.76 203.554 847.305 203.27C847.851 202.986 848.3 202.571 848.652 202.026C849.004 201.474 849.18 200.798 849.18 199.997ZM859.87 191.909V193.23H853.623V191.909H859.87ZM855.575 188.773H857.1V201.582C857.1 202.128 857.194 202.557 857.381 202.869C857.569 203.176 857.813 203.395 858.114 203.526C858.415 203.651 858.737 203.713 859.077 203.713C859.276 203.713 859.447 203.702 859.589 203.679C859.731 203.651 859.856 203.622 859.964 203.594L860.288 204.966C860.14 205.023 859.958 205.074 859.742 205.119C859.526 205.17 859.259 205.196 858.941 205.196C858.384 205.196 857.847 205.074 857.33 204.83C856.819 204.585 856.398 204.222 856.069 203.739C855.739 203.256 855.575 202.656 855.575 201.94V188.773ZM863.332 205V191.909H864.858V205H863.332ZM864.108 189.659C863.795 189.659 863.528 189.554 863.307 189.344C863.085 189.128 862.974 188.869 862.974 188.568C862.974 188.267 863.085 188.011 863.307 187.801C863.528 187.585 863.795 187.477 864.108 187.477C864.42 187.477 864.688 187.585 864.909 187.801C865.131 188.011 865.241 188.267 865.241 188.568C865.241 188.869 865.131 189.128 864.909 189.344C864.688 189.554 864.42 189.659 864.108 189.659ZM873.958 205.273C872.827 205.273 871.827 204.986 870.958 204.412C870.094 203.838 869.418 203.045 868.93 202.034C868.441 201.017 868.197 199.844 868.197 198.514C868.197 197.173 868.441 195.994 868.93 194.977C869.418 193.955 870.094 193.159 870.958 192.591C871.827 192.017 872.827 191.73 873.958 191.73C875.089 191.73 876.086 192.017 876.95 192.591C877.813 193.165 878.489 193.96 878.978 194.977C879.472 195.994 879.719 197.173 879.719 198.514C879.719 199.844 879.475 201.017 878.987 202.034C878.498 203.045 877.819 203.838 876.95 204.412C876.086 204.986 875.089 205.273 873.958 205.273ZM873.958 203.884C874.867 203.884 875.637 203.639 876.268 203.151C876.898 202.662 877.376 202.011 877.7 201.199C878.029 200.386 878.194 199.491 878.194 198.514C878.194 197.537 878.029 196.639 877.7 195.821C877.376 195.003 876.898 194.347 876.268 193.852C875.637 193.358 874.867 193.111 873.958 193.111C873.055 193.111 872.285 193.358 871.648 193.852C871.018 194.347 870.538 195.003 870.208 195.821C869.884 196.639 869.722 197.537 869.722 198.514C869.722 199.491 869.884 200.386 870.208 201.199C870.538 202.011 871.018 202.662 871.648 203.151C872.279 203.639 873.049 203.884 873.958 203.884ZM884.567 196.818V205H883.05V191.909H884.524V193.963H884.661C884.967 193.293 885.445 192.756 886.092 192.352C886.746 191.943 887.553 191.739 888.513 191.739C889.393 191.739 890.166 191.923 890.831 192.293C891.501 192.656 892.021 193.193 892.391 193.903C892.766 194.614 892.953 195.486 892.953 196.52V205H891.436V196.614C891.436 195.54 891.135 194.69 890.533 194.065C889.936 193.44 889.135 193.128 888.129 193.128C887.442 193.128 886.831 193.276 886.297 193.571C885.763 193.866 885.339 194.293 885.027 194.849C884.72 195.401 884.567 196.057 884.567 196.818Z" fill="black"/>
<path d="M1080.8 191.909C1080.7 190.937 1080.27 190.165 1079.51 189.591C1078.75 189.017 1077.79 188.73 1076.64 188.73C1075.82 188.73 1075.11 188.869 1074.49 189.148C1073.88 189.426 1073.39 189.812 1073.04 190.307C1072.69 190.795 1072.52 191.352 1072.52 191.977C1072.52 192.438 1072.62 192.841 1072.82 193.188C1073.02 193.534 1073.28 193.832 1073.62 194.082C1073.96 194.327 1074.34 194.537 1074.74 194.713C1075.16 194.889 1075.58 195.037 1076 195.156L1077.84 195.685C1078.39 195.838 1078.95 196.034 1079.51 196.273C1080.07 196.511 1080.57 196.812 1081.03 197.176C1081.5 197.534 1081.87 197.974 1082.15 198.497C1082.43 199.014 1082.58 199.636 1082.58 200.364C1082.58 201.295 1082.34 202.134 1081.85 202.878C1081.37 203.622 1080.68 204.213 1079.77 204.651C1078.87 205.082 1077.79 205.298 1076.53 205.298C1075.34 205.298 1074.31 205.102 1073.43 204.71C1072.56 204.312 1071.87 203.764 1071.37 203.065C1070.87 202.366 1070.59 201.557 1070.53 200.636H1072.16C1072.22 201.324 1072.45 201.906 1072.84 202.384C1073.24 202.861 1073.76 203.224 1074.39 203.474C1075.03 203.719 1075.74 203.841 1076.53 203.841C1077.39 203.841 1078.17 203.696 1078.84 203.406C1079.53 203.111 1080.06 202.702 1080.45 202.179C1080.84 201.651 1081.03 201.037 1081.03 200.338C1081.03 199.747 1080.88 199.253 1080.57 198.855C1080.27 198.452 1079.84 198.114 1079.29 197.841C1078.74 197.568 1078.11 197.327 1077.39 197.116L1075.3 196.503C1073.93 196.094 1072.87 195.528 1072.11 194.807C1071.36 194.085 1070.98 193.165 1070.98 192.045C1070.98 191.108 1071.23 190.284 1071.73 189.574C1072.23 188.858 1072.91 188.301 1073.77 187.903C1074.64 187.5 1075.61 187.298 1076.68 187.298C1077.76 187.298 1078.72 187.497 1079.56 187.895C1080.39 188.293 1081.06 188.841 1081.55 189.54C1082.04 190.233 1082.3 191.023 1082.34 191.909H1080.8ZM1091.39 205.273C1090.17 205.273 1089.11 204.989 1088.22 204.42C1087.33 203.847 1086.64 203.054 1086.15 202.043C1085.66 201.026 1085.42 199.855 1085.42 198.531C1085.42 197.213 1085.66 196.043 1086.15 195.02C1086.64 193.991 1087.31 193.187 1088.17 192.608C1089.03 192.023 1090.03 191.73 1091.16 191.73C1091.87 191.73 1092.55 191.861 1093.21 192.122C1093.87 192.378 1094.46 192.773 1094.99 193.307C1095.51 193.835 1095.93 194.503 1096.24 195.31C1096.55 196.111 1096.7 197.06 1096.7 198.156V198.906H1086.47V197.568H1095.15C1095.15 196.727 1094.98 195.972 1094.64 195.301C1094.3 194.625 1093.83 194.091 1093.23 193.699C1092.63 193.307 1091.94 193.111 1091.16 193.111C1090.33 193.111 1089.6 193.332 1088.97 193.776C1088.34 194.219 1087.84 194.804 1087.49 195.531C1087.13 196.259 1086.95 197.054 1086.95 197.918V198.719C1086.95 199.759 1087.13 200.668 1087.49 201.446C1087.85 202.219 1088.36 202.818 1089.03 203.244C1089.69 203.67 1090.48 203.884 1091.39 203.884C1092.01 203.884 1092.55 203.787 1093.02 203.594C1093.49 203.401 1093.88 203.142 1094.2 202.818C1094.53 202.489 1094.77 202.128 1094.93 201.736L1096.38 202.205C1096.18 202.756 1095.85 203.264 1095.39 203.73C1094.95 204.196 1094.38 204.571 1093.71 204.855C1093.04 205.134 1092.26 205.273 1091.39 205.273ZM1100.04 205V191.909H1101.52V193.92H1101.63C1101.89 193.261 1102.34 192.73 1102.99 192.327C1103.64 191.918 1104.38 191.713 1105.21 191.713C1105.33 191.713 1105.47 191.716 1105.62 191.722C1105.78 191.727 1105.91 191.733 1106.01 191.739V193.281C1105.94 193.27 1105.82 193.253 1105.65 193.23C1105.48 193.207 1105.29 193.196 1105.1 193.196C1104.41 193.196 1103.81 193.341 1103.27 193.631C1102.74 193.915 1102.33 194.31 1102.02 194.815C1101.71 195.321 1101.56 195.898 1101.56 196.545V205H1100.04ZM1119.13 191.909L1114.35 205H1112.73L1107.95 191.909H1109.59L1113.48 202.997H1113.6L1117.48 191.909H1119.13ZM1122.11 205V191.909H1123.64V205H1122.11ZM1122.89 189.659C1122.58 189.659 1122.31 189.554 1122.09 189.344C1121.87 189.128 1121.76 188.869 1121.76 188.568C1121.76 188.267 1121.87 188.011 1122.09 187.801C1122.31 187.585 1122.58 187.477 1122.89 187.477C1123.2 187.477 1123.47 187.585 1123.69 187.801C1123.91 188.011 1124.02 188.267 1124.02 188.568C1124.02 188.869 1123.91 189.128 1123.69 189.344C1123.47 189.554 1123.2 189.659 1122.89 189.659ZM1132.76 205.273C1131.59 205.273 1130.57 204.98 1129.71 204.395C1128.84 203.81 1128.17 203.009 1127.69 201.991C1127.22 200.974 1126.98 199.815 1126.98 198.514C1126.98 197.202 1127.22 196.034 1127.7 195.011C1128.19 193.989 1128.87 193.187 1129.73 192.608C1130.59 192.023 1131.6 191.73 1132.74 191.73C1133.61 191.73 1134.41 191.901 1135.12 192.241C1135.83 192.577 1136.41 193.051 1136.87 193.665C1137.34 194.273 1137.63 194.983 1137.75 195.795H1136.22C1136.06 195.057 1135.67 194.426 1135.07 193.903C1134.46 193.375 1133.7 193.111 1132.76 193.111C1131.93 193.111 1131.19 193.338 1130.55 193.793C1129.91 194.241 1129.4 194.869 1129.04 195.676C1128.68 196.477 1128.5 197.406 1128.5 198.463C1128.5 199.526 1128.68 200.466 1129.03 201.284C1129.38 202.097 1129.88 202.733 1130.51 203.193C1131.16 203.653 1131.91 203.884 1132.76 203.884C1133.34 203.884 1133.87 203.776 1134.35 203.56C1134.83 203.338 1135.24 203.026 1135.56 202.622C1135.89 202.219 1136.11 201.739 1136.23 201.182H1137.76C1137.65 201.972 1137.36 202.676 1136.92 203.295C1136.47 203.909 1135.9 204.392 1135.19 204.744C1134.48 205.097 1133.67 205.273 1132.76 205.273ZM1146.3 205.273C1145.08 205.273 1144.02 204.989 1143.13 204.42C1142.24 203.847 1141.55 203.054 1141.06 202.043C1140.58 201.026 1140.34 199.855 1140.34 198.531C1140.34 197.213 1140.58 196.043 1141.06 195.02C1141.55 193.991 1142.22 193.187 1143.08 192.608C1143.95 192.023 1144.94 191.73 1146.07 191.73C1146.78 191.73 1147.47 191.861 1148.13 192.122C1148.79 192.378 1149.38 192.773 1149.9 193.307C1150.43 193.835 1150.85 194.503 1151.15 195.31C1151.46 196.111 1151.61 197.06 1151.61 198.156V198.906H1141.39V197.568H1150.06C1150.06 196.727 1149.89 195.972 1149.55 195.301C1149.22 194.625 1148.75 194.091 1148.14 193.699C1147.55 193.307 1146.86 193.111 1146.07 193.111C1145.24 193.111 1144.51 193.332 1143.88 193.776C1143.25 194.219 1142.76 194.804 1142.4 195.531C1142.05 196.259 1141.87 197.054 1141.86 197.918V198.719C1141.86 199.759 1142.04 200.668 1142.4 201.446C1142.76 202.219 1143.28 202.818 1143.94 203.244C1144.61 203.67 1145.39 203.884 1146.3 203.884C1146.92 203.884 1147.47 203.787 1147.93 203.594C1148.4 203.401 1148.8 203.142 1149.12 202.818C1149.44 202.489 1149.68 202.128 1149.85 201.736L1151.29 202.205C1151.09 202.756 1150.76 203.264 1150.31 203.73C1149.86 204.196 1149.3 204.571 1148.62 204.855C1147.95 205.134 1147.18 205.273 1146.3 205.273ZM1163.75 194.781L1162.36 195.173C1162.23 194.781 1162.03 194.426 1161.78 194.108C1161.53 193.79 1161.21 193.537 1160.8 193.349C1160.4 193.162 1159.91 193.068 1159.32 193.068C1158.43 193.068 1157.71 193.278 1157.14 193.699C1156.57 194.119 1156.29 194.662 1156.29 195.327C1156.29 195.889 1156.48 196.347 1156.87 196.699C1157.26 197.045 1157.86 197.321 1158.67 197.526L1160.65 198.011C1161.75 198.278 1162.57 198.702 1163.11 199.281C1163.66 199.861 1163.94 200.588 1163.94 201.463C1163.94 202.202 1163.73 202.858 1163.33 203.432C1162.92 204.006 1162.35 204.457 1161.61 204.787C1160.88 205.111 1160.04 205.273 1159.08 205.273C1157.8 205.273 1156.75 204.986 1155.92 204.412C1155.09 203.832 1154.56 202.997 1154.33 201.906L1155.78 201.548C1155.97 202.327 1156.34 202.915 1156.88 203.312C1157.43 203.71 1158.16 203.909 1159.06 203.909C1160.06 203.909 1160.87 203.685 1161.47 203.236C1162.07 202.781 1162.37 202.213 1162.37 201.531C1162.37 201.003 1162.19 200.56 1161.84 200.202C1161.49 199.838 1160.96 199.571 1160.24 199.401L1158.1 198.889C1156.96 198.616 1156.12 198.185 1155.58 197.594C1155.03 197.003 1154.76 196.27 1154.76 195.395C1154.76 194.673 1154.96 194.04 1155.35 193.494C1155.74 192.943 1156.28 192.511 1156.97 192.199C1157.65 191.886 1158.44 191.73 1159.32 191.73C1160.52 191.73 1161.48 192.003 1162.19 192.548C1162.91 193.088 1163.43 193.832 1163.75 194.781Z" fill="black"/>
</svg>
