<svg width="165" height="165" viewBox="0 0 165 165" fill="none" xmlns="http://www.w3.org/2000/svg">
<circle cx="82.5" cy="82.5" r="77.5" stroke="url(#paint0_linear_296_193)" stroke-width="10"/>
<path d="M81.9999 71.125C80.4894 71.125 79.0829 71.4082 77.7801 71.9746C76.4774 72.541 75.3257 73.3151 74.3251 74.2969C73.3244 75.2787 72.5409 76.4398 71.9745 77.7803C71.4081 79.1208 71.1249 80.5273 71.1249 82C71.1249 83.5104 71.4081 84.917 71.9745 86.2197C72.5409 87.5225 73.315 88.6742 74.2967 89.6748C75.2785 90.6755 76.4302 91.459 77.7518 92.0254C79.0734 92.5918 80.4894 92.875 81.9999 92.875C83.4914 92.875 84.898 92.5918 86.2196 92.0254C87.5412 91.459 88.6929 90.6849 89.6747 89.7031C90.6564 88.7214 91.44 87.5697 92.0253 86.2481C92.6105 84.9264 92.8937 83.5104 92.8749 82C92.8749 80.7917 92.6672 79.5833 92.2518 78.375H96.0467C96.1978 78.9792 96.3111 79.5833 96.3866 80.1875C96.4621 80.7917 96.4999 81.3958 96.4999 82C96.4999 84.0013 96.1223 85.8799 95.3671 87.6357C94.6118 89.3916 93.5734 90.9209 92.2518 92.2236C90.9302 93.5264 89.3915 94.5648 87.6356 95.3389C85.8797 96.113 84.0012 96.5 81.9999 96.5C79.9986 96.5 78.12 96.1224 76.3641 95.3672C74.6083 94.612 73.079 93.5736 71.7762 92.252C70.4735 90.9303 69.4351 89.3916 68.661 87.6357C67.8869 85.8799 67.5093 84.0013 67.5282 82C67.5282 79.9987 67.9058 78.1201 68.661 76.3643C69.4162 74.6084 70.4452 73.0791 71.7479 71.7764C73.0506 70.4736 74.5894 69.4352 76.3641 68.6611C78.1389 67.887 80.0174 67.5 81.9999 67.5C82.604 67.5 83.2082 67.5378 83.8124 67.6133C84.4165 67.6888 85.0207 67.8021 85.6249 67.9531V71.7481C84.4165 71.3327 83.2082 71.125 81.9999 71.125ZM106.525 75.5147C107.092 77.6481 107.375 79.8099 107.375 82C107.375 84.3223 107.073 86.5596 106.469 88.7119C105.864 90.8643 105.015 92.8844 103.92 94.7725C102.825 96.6605 101.494 98.3786 99.9266 99.9268C98.3596 101.475 96.6509 102.797 94.8006 103.892C92.9504 104.987 90.9302 105.846 88.7401 106.469C86.55 107.092 84.3032 107.394 81.9999 107.375C79.6776 107.375 77.4403 107.073 75.2879 106.469C73.1356 105.865 71.1154 105.015 69.2274 103.92C67.3394 102.825 65.6213 101.494 64.0731 99.9268C62.5249 98.3597 61.2033 96.6511 60.1083 94.8008C59.0132 92.9505 58.1542 90.9303 57.5311 88.7402C56.9081 86.5501 56.606 84.3034 56.6249 82C56.6249 79.6777 56.9269 77.4404 57.5311 75.2881C58.1353 73.1357 58.9849 71.1156 60.0799 69.2275C61.175 67.3395 62.506 65.6214 64.0731 64.0732C65.6402 62.5251 67.3488 61.2035 69.1991 60.1084C71.0493 59.0133 73.0695 58.1543 75.2596 57.5313C77.4497 56.9082 79.6965 56.6061 81.9999 56.625C84.19 56.625 86.3518 56.9082 88.4852 57.4746L85.6249 60.335V60.5615C85.0207 60.4671 84.4165 60.3916 83.8124 60.335C83.2082 60.2783 82.604 60.25 81.9999 60.25C79.9986 60.25 78.0728 60.5049 76.2225 61.0146C74.3723 61.5244 72.6447 62.2607 71.0399 63.2236C69.4351 64.1865 67.9624 65.3193 66.6219 66.6221C65.2814 67.9248 64.1486 69.388 63.2235 71.0117C62.2984 72.6354 61.5715 74.3724 61.0428 76.2227C60.5142 78.0729 60.2499 79.9987 60.2499 82C60.2499 84.0013 60.5047 85.9271 61.0145 87.7774C61.5243 89.6276 62.2606 91.3552 63.2235 92.96C64.1864 94.5648 65.3192 96.0374 66.6219 97.3779C67.9247 98.7184 69.3879 99.8512 71.0116 100.776C72.6353 101.702 74.3723 102.428 76.2225 102.957C78.0728 103.486 79.9986 103.75 81.9999 103.75C84.0012 103.75 85.9269 103.495 87.7772 102.985C89.6275 102.476 91.355 101.739 92.9598 100.776C94.5646 99.8135 96.0373 98.6807 97.3778 97.3779C98.7183 96.0752 99.8511 94.612 100.776 92.9883C101.701 91.3646 102.428 89.6276 102.957 87.7774C103.486 85.9271 103.75 84.0013 103.75 82C103.75 81.3958 103.722 80.7917 103.665 80.1875C103.608 79.5833 103.533 78.9792 103.438 78.375H103.665L106.525 75.5147ZM89.2499 72.1729V64.0449L100.125 53.1699V63.875H110.83L99.9549 74.75H91.827L85.5116 81.0654C85.5871 81.3486 85.6249 81.6602 85.6249 82C85.6249 82.5098 85.5305 82.9818 85.3417 83.416C85.1529 83.8503 84.898 84.2279 84.577 84.5488C84.256 84.8698 83.869 85.1341 83.4159 85.3418C82.9628 85.5495 82.4907 85.6439 81.9999 85.625C81.4901 85.625 81.0181 85.5306 80.5838 85.3418C80.1496 85.153 79.772 84.8981 79.451 84.5772C79.1301 84.2562 78.8657 83.8691 78.6581 83.416C78.4504 82.9629 78.356 82.4909 78.3749 82C78.3749 81.4902 78.4693 81.0182 78.6581 80.584C78.8469 80.1497 79.1017 79.7721 79.4227 79.4512C79.7437 79.1302 80.1307 78.8659 80.5838 78.6582C81.037 78.4505 81.509 78.3561 81.9999 78.375C82.3397 78.375 82.6512 78.4128 82.9344 78.4883L89.2499 72.1729ZM92.8749 71.125H98.454L102.079 67.5H96.4999V61.9209L92.8749 65.5459V71.125Z" fill="#85B6FF"/>
<defs>
<linearGradient id="paint0_linear_296_193" x1="82.5" y1="10" x2="82.5" y2="155" gradientUnits="userSpaceOnUse">
<stop stop-color="#018FFF"/>
<stop offset="0.448958" stop-color="#56B4FF" stop-opacity="0.858333"/>
<stop offset="0.766667" stop-color="#377EB6" stop-opacity="0.769792"/>
<stop offset="0.964583" stop-color="#117BCF"/>
</linearGradient>
</defs>
</svg>
