<svg width="277" height="171" viewBox="0 0 277 171" fill="none" xmlns="http://www.w3.org/2000/svg">
<circle cx="82.5" cy="88.5" r="77.5" stroke="url(#paint0_linear_296_193)" stroke-width="10"/>
<path d="M255.153 20.2723C257.362 20.2378 259.125 18.4191 259.09 16.2103C259.056 14.0014 257.237 12.2387 255.028 12.2732L255.153 20.2723ZM114.062 22.4768L255.153 20.2723L255.028 12.2732L113.938 14.4778L114.062 22.4768Z" fill="url(#paint1_linear_296_193)"/>
<path d="M276.182 14.5455L254.363 27.1422V1.94872L276.182 14.5455Z" fill="#5FB2F4"/>
<path d="M81.9999 77.125C80.4894 77.125 79.0829 77.4082 77.7801 77.9746C76.4774 78.541 75.3257 79.3151 74.3251 80.2969C73.3244 81.2787 72.5409 82.4398 71.9745 83.7803C71.4081 85.1208 71.1249 86.5273 71.1249 88C71.1249 89.5104 71.4081 90.917 71.9745 92.2197C72.5409 93.5225 73.315 94.6742 74.2967 95.6748C75.2785 96.6755 76.4302 97.459 77.7518 98.0254C79.0734 98.5918 80.4894 98.875 81.9999 98.875C83.4914 98.875 84.898 98.5918 86.2196 98.0254C87.5412 97.459 88.6929 96.6849 89.6747 95.7031C90.6564 94.7214 91.44 93.5697 92.0253 92.2481C92.6105 90.9264 92.8937 89.5104 92.8749 88C92.8749 86.7917 92.6672 85.5833 92.2518 84.375H96.0467C96.1978 84.9792 96.3111 85.5833 96.3866 86.1875C96.4621 86.7917 96.4999 87.3958 96.4999 88C96.4999 90.0013 96.1223 91.8799 95.3671 93.6357C94.6118 95.3916 93.5734 96.9209 92.2518 98.2236C90.9302 99.5264 89.3915 100.565 87.6356 101.339C85.8797 102.113 84.0012 102.5 81.9999 102.5C79.9986 102.5 78.12 102.122 76.3641 101.367C74.6083 100.612 73.079 99.5736 71.7762 98.252C70.4735 96.9303 69.4351 95.3916 68.661 93.6357C67.8869 91.8799 67.5093 90.0013 67.5282 88C67.5282 85.9987 67.9058 84.1201 68.661 82.3643C69.4162 80.6084 70.4452 79.0791 71.7479 77.7764C73.0506 76.4736 74.5894 75.4352 76.3641 74.6611C78.1389 73.887 80.0174 73.5 81.9999 73.5C82.604 73.5 83.2082 73.5378 83.8124 73.6133C84.4165 73.6888 85.0207 73.8021 85.6249 73.9531V77.7481C84.4165 77.3327 83.2082 77.125 81.9999 77.125ZM106.525 81.5147C107.092 83.6481 107.375 85.8099 107.375 88C107.375 90.3223 107.073 92.5596 106.469 94.7119C105.864 96.8643 105.015 98.8844 103.92 100.772C102.825 102.66 101.494 104.379 99.9266 105.927C98.3596 107.475 96.6509 108.797 94.8006 109.892C92.9504 110.987 90.9302 111.846 88.7401 112.469C86.55 113.092 84.3032 113.394 81.9999 113.375C79.6776 113.375 77.4403 113.073 75.2879 112.469C73.1356 111.865 71.1154 111.015 69.2274 109.92C67.3394 108.825 65.6213 107.494 64.0731 105.927C62.5249 104.36 61.2033 102.651 60.1083 100.801C59.0132 98.9505 58.1542 96.9303 57.5311 94.7402C56.9081 92.5501 56.606 90.3034 56.6249 88C56.6249 85.6777 56.9269 83.4404 57.5311 81.2881C58.1353 79.1357 58.9849 77.1156 60.0799 75.2275C61.175 73.3395 62.506 71.6214 64.0731 70.0732C65.6402 68.5251 67.3488 67.2035 69.1991 66.1084C71.0493 65.0133 73.0695 64.1543 75.2596 63.5313C77.4497 62.9082 79.6965 62.6061 81.9999 62.625C84.19 62.625 86.3518 62.9082 88.4852 63.4746L85.6249 66.335V66.5615C85.0207 66.4671 84.4165 66.3916 83.8124 66.335C83.2082 66.2783 82.604 66.25 81.9999 66.25C79.9986 66.25 78.0728 66.5049 76.2225 67.0146C74.3723 67.5244 72.6447 68.2607 71.0399 69.2236C69.4351 70.1865 67.9624 71.3193 66.6219 72.6221C65.2814 73.9248 64.1486 75.388 63.2235 77.0117C62.2984 78.6354 61.5715 80.3724 61.0428 82.2227C60.5142 84.0729 60.2499 85.9987 60.2499 88C60.2499 90.0013 60.5047 91.9271 61.0145 93.7774C61.5243 95.6276 62.2606 97.3552 63.2235 98.96C64.1864 100.565 65.3192 102.037 66.6219 103.378C67.9247 104.718 69.3879 105.851 71.0116 106.776C72.6353 107.702 74.3723 108.428 76.2225 108.957C78.0728 109.486 79.9986 109.75 81.9999 109.75C84.0012 109.75 85.9269 109.495 87.7772 108.985C89.6275 108.476 91.355 107.739 92.9598 106.776C94.5646 105.813 96.0373 104.681 97.3778 103.378C98.7183 102.075 99.8511 100.612 100.776 98.9883C101.701 97.3646 102.428 95.6276 102.957 93.7774C103.486 91.9271 103.75 90.0013 103.75 88C103.75 87.3958 103.722 86.7917 103.665 86.1875C103.608 85.5833 103.533 84.9792 103.438 84.375H103.665L106.525 81.5147ZM89.2499 78.1729V70.0449L100.125 59.1699V69.875H110.83L99.9549 80.75H91.827L85.5116 87.0654C85.5871 87.3486 85.6249 87.6602 85.6249 88C85.6249 88.5098 85.5305 88.9818 85.3417 89.416C85.1529 89.8503 84.898 90.2279 84.577 90.5488C84.256 90.8698 83.869 91.1341 83.4159 91.3418C82.9628 91.5495 82.4907 91.6439 81.9999 91.625C81.4901 91.625 81.0181 91.5306 80.5838 91.3418C80.1496 91.153 79.772 90.8981 79.451 90.5772C79.1301 90.2562 78.8657 89.8691 78.6581 89.416C78.4504 88.9629 78.356 88.4909 78.3749 88C78.3749 87.4902 78.4693 87.0182 78.6581 86.584C78.8469 86.1497 79.1017 85.7721 79.4227 85.4512C79.7437 85.1302 80.1307 84.8659 80.5838 84.6582C81.037 84.4505 81.509 84.3561 81.9999 84.375C82.3397 84.375 82.6512 84.4128 82.9344 84.4883L89.2499 78.1729ZM92.8749 77.125H98.454L102.079 73.5H96.4999V67.9209L92.8749 71.5459V77.125Z" fill="#85B6FF"/>
<defs>
<linearGradient id="paint0_linear_296_193" x1="82.5" y1="16" x2="82.5" y2="161" gradientUnits="userSpaceOnUse">
<stop stop-color="#018FFF"/>
<stop offset="0.448958" stop-color="#56B4FF" stop-opacity="0.858333"/>
<stop offset="0.766667" stop-color="#377EB6" stop-opacity="0.769792"/>
<stop offset="0.964583" stop-color="#117BCF"/>
</linearGradient>
<linearGradient id="paint1_linear_296_193" x1="121.637" y1="18.4905" x2="255.092" y2="16.335" gradientUnits="userSpaceOnUse">
<stop stop-color="#018FFF"/>
<stop offset="0.313542" stop-color="#117BCF"/>
<stop offset="0.620833" stop-color="#6AB1EA"/>
<stop offset="1" stop-color="#52B3FF"/>
</linearGradient>
</defs>
</svg>
